<svg width="562" height="1123" viewBox="0 0 562 1123" fill="none" xmlns="http://www.w3.org/2000/svg">
<g id="back">
<g id="Muscle.Ankle">
<path id="Vector" d="M193.998 1071.47C194.798 1094.8 195.598 1100.54 197.864 1102.54C199.198 1103.6 203.064 1103.74 211.464 1102.94C222.531 1101.87 223.331 1101.6 224.931 1098.14C227.331 1093.2 228.931 1057.2 226.664 1059.34C225.864 1060.14 224.531 1064.54 223.598 1069.2C221.998 1078.8 218.131 1083.87 212.531 1083.87C205.064 1083.87 202.531 1080.27 200.531 1066.54C199.464 1060 196.531 1053.2 194.664 1053.2C193.998 1053.2 193.731 1061.2 193.998 1071.47Z" fill="#3D444D"/>
<path id="Vector_2" d="M363.465 1056C362.399 1057.74 360.799 1062.8 359.865 1067.2C357.065 1081.74 355.599 1083.87 348.665 1083.87C342.665 1083.87 338.799 1079.34 337.332 1070.4C335.865 1062 334.665 1058.27 333.332 1059.07C331.999 1060 333.999 1096.4 335.599 1099.47C336.799 1101.74 338.932 1102.4 347.865 1103.07C359.732 1104.14 363.199 1103.6 364.532 1100.14C365.865 1096.8 367.599 1055.47 366.399 1054C365.865 1053.47 364.532 1054.27 363.465 1056Z" fill="#3D444D"/>
</g>
<g id="Muscle.Feet">
<path id="Vector_3" d="M171.865 1108.4C171.865 1110.94 178.532 1115.34 185.199 1117.2C187.732 1118 197.465 1119.6 206.932 1120.8C222.399 1122.8 224.132 1122.8 225.999 1120.94C228.532 1118.4 227.599 1111.74 224.265 1108.94C222.665 1107.74 215.332 1107.07 196.932 1106.8C174.665 1106.4 171.865 1106.54 171.865 1108.4Z" fill="#3D444D"/>
<path id="Vector_4" d="M340.799 1107.47C337.199 1108 335.199 1111.07 333.865 1117.47C332.665 1123.34 340.532 1123.74 367.199 1119.07C379.465 1116.8 391.065 1111.6 390.132 1108.8C389.599 1107.2 349.332 1106.14 340.799 1107.47Z" fill="#3D444D"/>
</g>
<g id="Fingers">
<path id="Vector_5" d="M24.1313 555.07C21.9979 557.603 18.2646 562.27 15.9979 565.603C13.7313 568.936 9.33126 573.07 6.2646 574.803C1.99793 577.07 0.397928 578.803 0.131262 581.603C-0.268738 584.936 -0.00207164 585.203 4.53126 585.203C8.53126 585.203 10.6646 584.003 15.9979 578.803C21.5979 573.603 23.3313 570.67 26.3979 561.47C28.5313 555.47 29.7313 550.536 29.1979 550.536C28.5313 550.536 26.3979 552.536 24.1313 555.07Z" fill="#3D444D"/>
<path id="Vector_6" d="M531.198 552.803C531.732 554.136 533.065 558.136 534.132 561.736C536.665 570.27 539.065 574.136 545.732 580.136C549.998 584.003 552.265 585.203 556.265 585.203C560.665 585.203 561.198 584.803 561.198 581.87C561.198 579.203 559.732 577.736 554.665 574.803C551.065 572.803 547.198 569.736 545.998 567.87C539.998 557.603 528.398 545.87 531.198 552.803Z" fill="#3D444D"/>
<path id="Vector_7" d="M26.6652 588.67C25.0652 591.203 23.8652 593.603 23.8652 594.003C23.8652 594.403 20.2652 601.203 15.8652 609.203C8.39858 622.803 6.13191 629.203 9.06524 629.203C10.6652 629.203 17.3319 620.936 26.9319 607.07C31.1986 601.07 35.4652 595.47 36.5319 594.536C40.1319 591.603 39.0652 586.936 34.3986 585.336C31.9986 584.536 29.9986 583.87 29.7319 583.87C29.5986 583.87 28.2652 586.003 26.6652 588.67Z" fill="#3D444D"/>
<path id="Vector_8" d="M526.265 585.336C521.332 587.203 520.798 589.87 524.398 594.136C525.998 596.27 530.932 602.936 535.198 609.203C549.598 630.403 551.865 632.536 551.865 625.736C551.865 622.67 531.998 583.736 530.532 584.003C530.132 584.003 528.265 584.67 526.265 585.336Z" fill="#3D444D"/>
<path id="Vector_9" d="M37.4654 602.803C35.9987 607.47 32.3987 617.47 29.332 625.203C23.732 639.736 22.6654 645.203 25.5987 645.203C27.8654 645.203 33.1987 641.336 33.1987 639.603C33.1987 638.936 37.1987 628.936 42.132 617.603C51.5987 595.603 51.732 594.67 43.732 594.536C40.532 594.536 39.8654 595.336 37.4654 602.803Z" fill="#3D444D"/>
<path id="Vector_10" d="M511.065 596.536C510.131 598.67 526.931 639.07 530.265 642.803C532.665 645.736 537.198 646.003 537.198 643.203C537.198 642.136 533.598 631.736 529.198 620.003C524.798 608.27 521.198 597.736 521.198 596.67C521.198 593.736 512.131 593.736 511.065 596.536Z" fill="#3D444D"/>
<path id="Vector_11" d="M72.9313 598.136C70.7979 598.67 70.5312 600.536 70.5312 612.936C70.5312 632.403 72.2646 638.003 75.5979 629.47C77.5979 624.67 78.2646 597.203 76.5313 597.336C75.8646 597.47 74.1313 597.736 72.9313 598.136Z" fill="#3D444D"/>
<path id="Vector_12" d="M483.065 612.803C483.999 627.47 485.199 633.203 487.732 633.203C489.199 633.203 490.532 621.736 490.532 609.07C490.532 599.603 490.265 598.803 487.599 598.003C485.865 597.603 483.999 597.203 483.332 597.203C482.665 597.203 482.532 603.736 483.065 612.803Z" fill="#3D444D"/>
<path id="Vector_13" d="M53.4647 604.803C50.1314 621.203 47.3314 645.203 48.798 646.67C51.7314 649.603 54.2647 643.603 58.398 622.403C62.9314 599.87 62.9314 598.67 56.9314 598.536C55.3314 598.536 54.398 600.403 53.4647 604.803Z" fill="#3D444D"/>
<g id="Vector_14" filter="url(#filter0_d_52_509)">
<path d="M499.865 599.87C498.131 600.936 498.398 603.87 502.265 622.803C505.198 637.203 507.465 645.07 508.931 646.27C513.065 649.47 513.331 644.403 509.865 622.536C507.998 610.67 506.531 600.403 506.531 599.736C506.531 598.136 502.398 598.27 499.865 599.87Z" fill="#3D444D"/>
</g>
</g>
<g id="Muscle.Legs">
<g id="Muscle.Calves">
<g id="Muscle.Gastrocnemius">
<path id="Vector_15" d="M199.865 800.136C183.065 822.27 178.398 840.403 178.398 882.403C178.532 913.736 182.932 942.803 188.665 948.403C192.932 952.803 202.265 949.603 204.398 943.07C204.798 941.603 205.465 916.67 205.865 887.736C206.132 858.803 207.065 825.07 207.732 812.67C208.532 800.136 208.932 789.736 208.665 789.47C208.398 789.336 204.398 794.003 199.865 800.136Z" fill="#3D444D"/>
<path id="Vector_16" d="M351.865 793.07C351.865 795.47 352.532 808.936 353.198 822.936C353.998 837.07 354.798 869.603 354.932 895.47C355.198 940.803 355.332 942.536 357.998 946.136C361.332 950.67 368.265 951.87 371.865 948.536C377.332 943.603 382.532 910.936 382.532 881.87C382.532 842.536 376.798 820.803 360.932 800.003C351.598 787.87 351.865 788.136 351.865 793.07Z" fill="#3D444D"/>
<path id="Vector_17" d="M214.534 806.179C214.134 815.379 214.4 831.512 215.067 842.179C216 855.245 215.867 874.579 214.8 901.645C213.2 944.979 213.6 948.979 219.734 949.912C223.867 950.445 232.934 939.912 238.667 927.779C243.2 918.312 243.6 916.312 244 903.379C244.667 887.379 241.6 860.712 237.467 843.645C235.867 837.512 230.934 824.312 226.4 814.312C221.867 804.312 217.467 794.712 216.667 792.845C215.6 790.312 215.2 793.112 214.534 806.179Z" fill="#3D444D"/>
<path id="Vector_18" d="M343.009 793C343.009 794.2 339.942 801.8 336.209 810.067C322.476 840.2 318.742 854.867 316.476 887.267C315.142 908.067 316.476 918.467 322.209 930.467C327.542 941.667 336.342 951.4 340.742 950.733C346.342 949.933 347.276 942.733 345.542 915.667C344.609 899.8 344.342 874.6 345.009 841.267C345.676 804.733 345.542 791 344.476 791C343.676 791 343.009 791.933 343.009 793Z" fill="#3D444D"/>
</g>
<g id="Muscle.Achilles_Tendon">
<path id="Vector_19" d="M215.331 964.803C215.064 966.136 214.398 972.003 213.864 977.87C212.931 989.603 215.598 1068.27 217.064 1072.27C217.731 1073.87 218.664 1068.94 219.731 1059.74C220.664 1051.34 222.931 1036.94 224.664 1027.74C228.131 1009.47 230.398 989.47 230.531 976.136C230.531 969.603 229.998 967.336 227.864 965.203C224.398 961.736 216.264 961.47 215.331 964.803Z" fill="#3D444D"/>
<path id="Vector_20" d="M332.531 965.203C330.398 967.603 330.131 969.736 330.931 987.603C331.465 998.803 332.931 1012.67 334.531 1019.87C336.665 1030 339.331 1047.87 342.665 1073.74C342.798 1074.54 343.331 1071.6 343.998 1067.2C345.465 1055.47 347.065 976.27 345.998 968.803C345.065 962.536 344.931 962.536 339.998 962.536C336.665 962.536 334.131 963.47 332.531 965.203Z" fill="#3D444D"/>
</g>
<g id="Muscle.Fibularis_Longus">
<path id="Vector_21" d="M190.132 962.27C187.332 965.336 187.332 968.003 189.998 976.536C192.798 985.87 195.332 1000.14 197.865 1021.2C200.932 1047.34 205.198 1073.74 206.532 1075.07C208.932 1077.47 209.865 1064.94 209.598 1035.87C209.332 1019.34 208.398 996.67 207.465 985.336C205.732 966.67 205.332 964.536 202.532 962.27C198.665 959.203 192.932 959.203 190.132 962.27Z" fill="#3D444D"/>
<path id="Vector_22" d="M357.999 962.936C355.332 965.603 354.799 968.136 353.465 983.203C352.532 992.803 351.599 1009.87 351.199 1021.2C350.665 1032.54 350.132 1044.8 349.865 1048.4C349.199 1057.74 352.132 1077.34 353.865 1075.6C355.065 1074.54 358.399 1054 361.732 1028.4C366.265 993.603 367.465 986.67 370.532 976.936C373.865 966.27 373.865 964.536 370.265 962.003C365.999 959.07 361.599 959.336 357.999 962.936Z" fill="#3D444D"/>
</g>
</g>
<g id="Muscle.Glutes">
<g id="Muscle.Gluteus_Maximus">
<path id="Vector_23" d="M246.532 487.336C220.398 496.403 192.265 515.603 186.398 528.536C179.465 543.47 186.665 569.736 203.065 590.803C211.465 601.336 216.398 604.67 229.998 608.67C247.465 613.87 251.865 614.536 258.132 612.936C267.465 610.67 269.332 607.47 270.532 591.603C271.198 584.003 272.532 574.003 273.598 569.203C274.798 564.403 276.398 553.603 277.198 545.203C279.598 519.336 275.865 503.736 263.998 490.803C258.265 484.536 255.998 484.136 246.532 487.336Z" fill="#3D444D"/>
<path id="Vector_24" d="M299.732 486.936C298.532 487.87 294.932 492.536 291.599 497.47C286.665 504.536 285.199 508.136 283.865 516.136C281.732 528.536 282.932 551.07 286.665 567.203C288.132 573.736 289.599 584.27 289.999 590.536C290.932 606.136 291.332 607.603 296.265 610.536C302.265 614.27 313.865 614.003 326.532 610.003C331.999 608.136 337.999 606.403 339.865 606.003C347.065 604.27 361.732 587.07 369.199 571.603C374.932 560.003 377.999 545.47 376.665 536.67C374.799 524.536 364.132 513.203 342.132 500.27C330.932 493.736 309.732 485.203 304.799 485.203C303.199 485.203 300.932 486.003 299.732 486.936Z" fill="#3D444D"/>
</g>
<g id="Muscle.Gluteus_Medius">
<path id="Vector_25" d="M204.932 474.403C202.399 476.67 198.132 482.536 195.465 487.603C190.532 496.803 185.465 512.536 186.932 514.003C187.332 514.403 195.865 509.07 205.999 502.003C221.332 491.203 225.999 488.67 235.732 485.603C241.999 483.736 247.599 481.736 248.265 481.203C248.799 480.803 248.132 479.336 246.932 478.27C242.932 474.803 231.732 471.603 220.399 470.936C209.865 470.136 209.599 470.27 204.932 474.403Z" fill="#3D444D"/>
<path id="Vector_26" d="M329.332 472.003C322.398 473.336 311.332 478.67 311.598 480.403C311.598 481.203 314.798 482.536 318.398 483.47C329.732 486.27 341.332 492.403 357.065 503.603C365.465 509.603 372.798 514.536 373.332 514.536C376.398 514.536 368.665 492.536 361.732 481.603C359.332 477.736 355.465 473.736 353.332 472.536C349.065 470.403 338.932 470.136 329.332 472.003Z" fill="#3D444D"/>
</g>
</g>
<g id="Muscle.Hamstrings">
<g id="Muscle.Biceps_Femoris">
<path id="Vector_27" d="M198.268 602.6C195.602 609.533 194.535 633.133 194.402 680.333C194.402 726.067 193.202 750.333 190.268 765.667C189.602 769.667 187.868 781.267 186.535 791.267C184.535 807 184.535 809.267 186.268 807.933C189.468 805.267 199.068 783.533 204.935 765.667C214.268 736.867 216.935 724.333 218.268 700.333C220.135 669.933 221.735 636.467 221.602 631.4C221.335 623 206.535 599 201.735 599C200.535 599 199.068 600.6 198.268 602.6Z" fill="#3D444D"/>
<path id="Vector_28" d="M352.531 604.136C349.865 607.336 345.598 613.87 343.065 618.936L338.531 627.87L339.865 659.603C341.865 704.403 343.465 722.536 346.665 735.07C349.998 748.403 357.465 771.87 362.798 785.203C366.931 795.47 374.398 809.736 375.331 808.803C375.998 808.27 372.665 780.003 369.865 763.203C366.931 744.67 366.398 733.07 365.331 667.87C364.265 606.803 363.465 598.536 359.198 598.536C358.265 598.536 355.198 601.07 352.531 604.136Z" fill="#3D444D"/>
</g>
<g id="Muscle.liotibial_Tract">
<path id="Vector_29" d="M171.065 584.803C168.932 593.07 173.199 673.736 177.199 703.203C179.199 717.07 183.732 736.936 185.332 737.87C185.999 738.403 186.132 731.603 185.732 720.936C185.199 708.936 185.599 694.936 187.199 677.47C188.932 656.67 189.065 649.07 187.999 636.803C185.732 613.87 184.265 608.003 175.599 584.803C173.865 580.27 172.132 580.136 171.065 584.803Z" fill="#3D444D"/>
<path id="Vector_30" d="M385.198 584.803C380.532 595.07 375.598 612.803 373.865 626.27C371.332 645.203 371.332 656.136 373.998 684.536C375.332 699.603 375.732 712.536 375.065 723.203C374.665 732.003 374.665 738.803 375.065 738.403C377.065 736.536 381.332 718.136 383.198 703.87C389.065 657.203 391.998 581.203 387.865 581.203C387.332 581.203 386.132 582.803 385.198 584.803Z" fill="#3D444D"/>
</g>
<g id="Muscle.Semitendinosus">
<path id="Vector_31" d="M229.998 630.936C227.865 636.403 225.065 658.403 222.398 692.536C219.998 721.87 219.998 790.67 222.265 798.136C225.731 809.736 226.665 806.136 232.531 759.87C236.398 729.203 241.065 704.403 245.198 692.67C251.198 675.203 245.865 644.136 234.131 628.536C232.265 626.003 231.998 626.136 229.998 630.936Z" fill="#3D444D"/>
<path id="Vector_32" d="M322.132 636.136C316.265 648.003 311.198 670.803 312.532 679.87C313.065 683.203 314.798 690.67 316.532 696.536C320.932 711.203 323.332 724.67 327.998 760.403C332.798 797.736 333.198 800.403 334.665 802.67C336.265 805.203 337.065 803.87 338.398 796.403C342.132 775.87 341.198 725.336 335.732 666.136C333.332 639.336 330.798 626.536 327.865 626.536C327.332 626.536 324.665 630.936 322.132 636.136Z" fill="#3D444D"/>
</g>
</g>
</g>
<g id="Muscle.Core">
<g id="Muscle.Obliques">
<g id="Muscle.External_Obliques">
<path id="Vector_33" d="M357.199 424.936C354.932 425.736 353.999 426.803 345.199 439.07C336.132 451.603 336.399 453.203 347.599 460.403C352.665 463.603 358.932 468.803 361.732 472.003C367.865 479.203 368.665 478.27 369.999 462.67C371.865 439.736 365.865 421.87 357.199 424.936Z" fill="#3D444D"/>
<path id="Vector_34" d="M196.132 428.136C191.598 433.07 190.132 442.27 190.798 460.003C191.198 468.803 192.132 476.67 192.798 477.336C193.598 478.136 195.332 476.936 197.465 473.603C200.665 468.67 204.665 465.603 216.932 458.003C220.132 456.003 222.532 453.47 222.532 452.136C222.532 449.336 216.265 439.07 209.598 430.803C204.398 424.403 200.532 423.603 196.132 428.136Z" fill="#3D444D"/>
</g>
</g>
</g>
<g id="Muscle.Arms">
<g id="Muscle.Forearms">
<g id="Muscle.Flexor_Carpi_Ulnaris">
<path id="Vector_35" d="M126.216 412.759C122.556 413.831 119.75 420.93 108.892 456.023C97.9124 491.519 92.0565 507.86 86.0786 520.183C84.1266 524.201 82.7846 527.684 83.0286 527.952C85.4686 530.63 135 421.332 135 413.295C135 411.822 130.242 411.554 126.216 412.759Z" fill="#3D444D"/>
<path id="Vector_36" d="M421.164 413.984C421.164 418.251 430.364 438.651 450.231 478.251C461.564 501.184 472.364 521.584 474.097 523.584L477.297 527.317L473.964 520.517C467.431 507.051 460.631 489.584 451.164 461.317C437.697 421.584 436.097 417.717 432.231 414.651C428.231 411.451 421.164 411.051 421.164 413.984Z" fill="#3D444D"/>
</g>
<g id="Muscle.Extensor_Digitorum">
<path id="Vector_37" d="M93.5037 403.036C86.837 456.369 77.237 515.169 73.9037 523.036C72.9703 525.436 72.7037 527.436 73.3703 527.436C76.9703 527.436 95.3703 490.503 103.504 466.903C109.104 450.769 107.237 416.903 99.9037 399.169C98.3037 395.303 96.5703 391.703 96.037 391.036C95.5037 390.503 94.437 395.969 93.5037 403.036Z" fill="#3D444D"/>
<path id="Vector_38" d="M461.103 399.169C456.303 411.436 454.17 425.302 454.17 443.436C454.17 457.969 454.303 459.436 459.103 471.702C468.037 494.769 485.77 530.102 487.503 528.369C487.903 528.102 487.237 524.236 486.037 519.969C481.77 503.702 472.57 446.102 467.903 407.436C467.103 399.702 465.903 392.636 465.503 391.836C464.97 390.902 463.103 394.102 461.103 399.169Z" fill="#3D444D"/>
</g>
<g id="Muscle.Anconeus">
<path id="Vector_39" d="M108.799 396.136C109.465 417.869 110.132 423.203 113.065 425.736C115.332 427.869 115.599 427.736 117.732 424.536C121.465 418.803 123.865 410.669 123.865 403.736C123.865 397.336 122.132 394.536 109.999 381.469C108.799 380.136 108.532 383.469 108.799 396.136Z" fill="#3D444D"/>
<path id="Vector_40" d="M450.531 380.803C450.531 381.47 447.731 384.803 444.398 388.536C440.931 392.136 437.731 396.67 437.065 398.403C434.665 404.27 438.398 420.003 443.465 425.47C448.531 431.07 450.798 423.47 451.198 399.47C451.465 388.67 451.465 379.87 451.065 379.87C450.798 379.87 450.531 380.27 450.531 380.803Z" fill="#3D444D"/>
</g>
<g id="Muscle.Brachioradialis">
<path id="Vector_41" d="M84.6648 408.803C84.2648 410.936 81.5982 426.936 78.6648 444.536C71.8648 485.07 65.1982 515.736 60.3982 528.536L59.4648 531.203L62.3982 528.536C66.5315 524.936 72.2648 513.336 75.7315 501.87C81.3315 482.803 88.7982 425.336 87.9982 407.47C87.8648 403.87 85.4648 404.803 84.6648 408.803Z" fill="#3D444D"/>
<path id="Vector_42" d="M472.265 407.203C470.799 411.203 477.465 467.736 481.999 490.536C485.465 507.07 495.865 530.536 499.865 530.536C500.399 530.536 499.465 525.87 497.732 520.136C493.065 504.936 487.465 478.27 481.065 439.47C477.865 420.67 474.799 405.203 474.265 405.203C473.599 405.203 472.799 406.136 472.265 407.203Z" fill="#3D444D"/>
</g>
</g>
<g id="Muscle.Upper_Arms">
<g id="Muscle.Triceps">
<path id="Vector_43" d="M154.531 307.07C148.531 312.536 142.665 318.27 141.598 319.87C140.531 321.47 138.798 329.336 137.865 337.603C136.798 345.87 135.065 357.07 133.865 362.536C131.465 373.87 130.798 391.336 132.798 393.336C133.731 394.27 135.731 392.67 138.798 388.936C145.198 381.07 146.265 378.803 147.731 369.47C148.665 363.47 150.265 359.603 153.731 355.203C159.465 347.736 169.198 318.67 169.198 309.47C169.198 302.403 167.998 297.203 166.531 297.203C165.998 297.203 160.531 301.603 154.531 307.07Z" fill="#3D444D"/>
<path id="Vector_44" d="M393.053 302.6C392.787 314.067 393.453 319 396.52 327.533C398.253 332.333 400.387 338.867 401.187 341.933C401.987 345 404.92 350.6 407.72 354.333C411.72 359.667 413.32 363.4 414.52 370.067C415.32 374.867 416.653 379.933 417.32 381.4C419.72 385.8 428.12 394.333 429.32 393.533C431.453 392.333 430.52 374.067 427.853 361C426.387 354.067 424.92 344.467 424.52 339.667C423.187 324.733 422.52 322.467 418.12 317.4C412.787 311.267 396.253 297 394.52 297C393.72 297 393.187 299.533 393.053 302.6Z" fill="#3D444D"/>
<path id="Vector_45" d="M119.998 316.136C114.131 340.936 111.865 366.803 114.798 375.07C118.265 385.203 119.598 383.203 129.465 353.87C132.531 344.803 133.331 340.403 132.931 335.203C132.265 328.803 124.531 309.203 122.531 309.203C122.131 309.203 120.931 312.403 119.998 316.136Z" fill="#3D444D"/>
<path id="Vector_46" d="M433.198 317.603C425.198 335.203 425.198 336.27 431.732 355.47C438.798 376.67 440.665 381.203 442.398 381.203C446.665 381.203 447.865 356.936 444.532 336.536C442.532 324.136 439.198 310.803 437.998 309.47C437.598 309.07 435.465 312.803 433.198 317.603Z" fill="#3D444D"/>
<path id="Vector_47" d="M150.799 262.67C134.265 276.003 128.132 288.403 129.865 305.87C130.265 311.203 131.599 316.803 132.532 318.136C134.132 320.403 134.799 320.003 141.465 312.936C145.332 308.803 152.265 302.67 156.932 299.336C161.465 296.003 165.199 292.27 165.199 291.07C165.199 288.536 159.865 256.803 159.332 256.27C159.199 256.136 155.332 258.936 150.799 262.67Z" fill="#3D444D"/>
<path id="Vector_48" d="M400.626 256.072C399.026 262.605 394.626 291.538 395.026 292.738C395.292 293.538 399.026 296.472 403.159 299.272C407.292 301.938 413.959 307.805 418.092 312.072C425.026 319.272 425.826 319.805 427.559 317.672C428.759 316.205 429.559 311.138 429.826 303.005C430.226 292.072 429.959 289.805 427.026 283.538C425.159 279.405 420.626 273.272 415.959 268.872C408.092 261.272 400.892 255.272 400.626 256.072Z" fill="#3D444D"/>
</g>
</g>
</g>
<g id="Muscle.Back">
<g id="Muscle.Thoracolumbar_Fascia">
<path id="Vector_49" d="M257.998 366.803C249.065 385.336 231.598 429.47 227.865 442.67C223.198 459.603 222.265 458.003 246.398 473.87C257.998 481.603 268.132 487.87 268.932 487.87C270.798 487.87 271.732 480.803 273.198 456.803C275.465 421.603 270.932 351.87 266.532 351.87C265.865 351.87 261.998 358.67 257.998 366.803Z" fill="#3D444D"/>
<path id="Vector_50" d="M291.998 356.803C286.132 379.203 285.465 481.87 291.065 487.603C291.865 488.27 296.265 485.603 319.065 470.803L336.265 459.736L335.332 453.736C333.198 438.27 298.532 351.87 294.398 351.87C293.732 351.87 292.665 354.136 291.998 356.803Z" fill="#3D444D"/>
</g>
<g id="Muscle.Teres_Major">
<path id="Vector_51" d="M167.332 238.003C162.932 242.27 165.598 260.936 171.598 269.87C175.998 276.27 185.865 281.87 194.398 283.07C204.532 284.403 223.598 278.27 222.132 274.136C221.865 273.203 218.532 271.87 214.665 270.936C198.398 267.336 181.465 255.603 174.265 243.07C172.132 239.07 170.132 235.87 169.865 235.87C169.598 235.87 168.398 236.803 167.332 238.003Z" fill="#3D444D"/>
<path id="Vector_52" d="M388.398 239.336C381.998 249.736 379.465 252.936 373.598 257.336C361.865 266.136 357.732 268.003 342.932 271.87C339.732 272.67 337.198 273.87 337.198 274.536C337.198 276.536 346.532 280.803 354.665 282.403C362.665 284.136 371.332 282.936 378.398 279.203C384.132 276.27 391.598 267.203 393.198 261.07C395.732 252.003 395.598 240.403 392.932 237.736C390.932 235.736 390.665 235.87 388.398 239.336Z" fill="#3D444D"/>
</g>
<g id="Muscle.Rotator_Cuff">
<g id="Muscle.Infraspinatus">
<path id="Vector_53" d="M197.865 207.07C184.931 212.536 172.931 219.07 171.465 221.47C169.465 224.403 179.598 243.736 186.665 250.536C194.131 257.87 218.531 270.536 224.931 270.536C227.465 270.536 229.598 269.736 229.998 268.67C230.398 267.603 229.198 261.87 227.331 255.736C225.465 249.603 222.131 236.803 219.865 227.336C215.598 209.336 212.931 202.536 210.131 202.536C209.331 202.67 203.731 204.67 197.865 207.07Z" fill="#3D444D"/>
<path id="Vector_54" d="M347.331 205.47C346.265 207.07 343.598 216.136 341.331 225.47C339.065 234.803 335.731 247.736 333.865 254.136C331.998 260.536 330.531 266.803 330.531 268.136C330.531 272.536 338.531 270.936 353.065 263.87C370.931 255.203 378.265 248.136 385.331 233.603C388.131 227.47 390.131 221.736 389.731 220.936C388.665 219.203 358.131 204.403 352.931 203.203C350.131 202.536 348.931 202.936 347.331 205.47Z" fill="#3D444D"/>
</g>
</g>
<g id="Muscle.Latissimus_Dorsi">
<path id="Vector_55" d="M227.198 280.536C220.265 288.936 210.665 292.403 197.865 291.203C192.798 290.67 185.598 289.07 181.865 287.736C178.265 286.27 175.065 285.203 174.931 285.203C174.665 285.203 174.531 286.536 174.531 288.27C174.531 293.47 178.398 304.936 182.531 311.87C185.731 317.203 186.798 321.603 188.531 334.67C189.731 343.603 191.598 354.27 192.665 358.403C193.731 362.536 196.131 374.27 197.865 384.536C199.731 394.803 201.731 406.003 202.398 409.603C202.931 413.07 205.198 418.403 207.198 421.603C211.998 428.803 221.198 439.87 222.398 439.87C222.931 439.87 226.931 430.403 231.198 418.803C235.465 407.336 242.131 390.403 245.998 381.203C255.598 358.27 262.531 337.736 262.531 332.67C262.531 329.87 261.065 326.136 258.531 322.67C256.265 319.603 250.131 307.47 244.931 295.736C239.731 284.136 234.665 274.536 233.731 274.536C232.798 274.536 229.865 277.203 227.198 280.536Z" fill="#3D444D"/>
<path id="Vector_56" d="M322.8 280.6C311.14 307.001 306.047 317.801 302.697 322.335C300.686 325.268 298.542 329.135 298.14 330.869C297.068 335.269 302.027 350.069 317.305 388.337C324.542 406.338 331.779 424.872 333.387 429.672C335.13 434.472 337.006 438.872 337.676 439.672C338.882 441.139 341.831 437.939 351.48 424.872C357.377 416.738 357.511 416.471 361.666 392.871C363.944 379.67 366.892 364.336 368.233 358.603C369.573 353.003 371.449 342.469 372.253 335.269C373.593 324.868 374.934 319.935 379.758 309.668C382.975 302.734 385.923 294.334 386.459 291.134C387.531 284.6 388.202 284.6 376.274 289C372.789 290.334 365.82 291.401 359.521 291.534C346.923 291.667 342.233 289.8 333.923 280.867C330.841 277.667 327.624 275 326.82 275C325.882 275 324.14 277.533 322.8 280.6Z" fill="#3D444D"/>
</g>
<g id="Muscle.Trapezius">
<path id="Vector_57" d="M216.665 181.87C212.265 183.07 208.531 184.136 208.265 184.403C207.998 184.536 210.131 189.87 213.065 196.003C215.998 202.136 220.531 214.403 223.198 223.203C239.065 275.336 238.265 273.47 260.798 315.87C264.531 322.803 267.998 330.536 268.531 332.803C269.998 340.136 271.465 338.936 272.398 329.47C276.265 287.87 277.998 233.203 275.998 215.203C273.598 194.67 272.665 192.403 265.465 187.736C257.331 182.536 252.398 181.336 237.198 180.536C228.398 180.136 222.131 180.536 216.665 181.87Z" fill="#3D444D"/>
<path id="Vector_58" d="M312.798 181.336C297.865 183.336 290.265 188.67 286.798 199.736C284.931 206.136 284.531 212.936 284.531 245.87C284.531 281.07 286.931 327.603 289.198 335.87C289.998 338.803 290.398 338.003 292.931 330.403C294.531 325.603 298.665 316.936 301.998 311.07C318.398 282.67 322.131 273.47 335.731 228.936C341.198 211.203 347.331 195.47 352.931 184.936C353.598 183.603 335.198 179.87 328.265 180.003C324.798 180.136 317.731 180.67 312.798 181.336Z" fill="#3D444D"/>
</g>
</g>
<g id="Muscle.Wrist">
<path id="Vector_59" d="M52.3979 539.87C39.1979 546.403 30.6646 557.603 30.5312 568.27C30.5312 582.403 64.2646 600.403 77.5979 593.336C82.7979 590.536 85.9979 579.87 87.3313 560.27C88.1313 549.603 87.8646 548.27 85.3313 544.936C79.5979 537.736 62.1313 535.07 52.3979 539.87Z" fill="#3D444D"/>
<path id="Vector_60" d="M484.132 539.736C480.265 541.07 476.265 543.336 475.198 544.67C471.332 549.736 473.732 578.27 478.798 588.936C479.998 591.203 482.398 593.07 485.732 594.27C499.065 598.536 527.465 582.803 529.998 569.736C531.198 563.603 525.732 552.27 519.065 546.936C506.265 536.803 497.598 535.07 484.132 539.736Z" fill="#3D444D"/>
</g>
<g id="Muscle.Shoulders">
<g id="Muscle.Deltoids">
<path id="Vector_61" d="M154.067 195.853C145 200.119 134.2 210.253 130.2 218.253C127.133 224.253 127 225.853 127 247.986V271.453L130.067 270.653C136.067 268.786 147.4 261.053 153.8 254.386C159.4 248.519 160.333 246.653 160.333 242.253C160.333 239.319 161.533 233.053 163 228.253C165.8 219.319 170.6 213.586 181.933 205.986C184.733 204.119 186.733 201.986 186.6 201.319C185.667 198.519 174.733 193.719 168.067 193.186C162.333 192.653 159.667 193.186 154.067 195.853Z" fill="#3D444D"/>
<path id="Vector_62" d="M384.2 193.853C382.2 194.519 378.466 196.519 375.666 198.386L370.6 201.853L377 206.253C391.8 216.519 395.4 221.853 397.8 236.786C398.466 241.453 399.4 246.386 399.8 247.586C401.533 253.453 419.933 267.719 429.4 270.653L432.333 271.453V249.053C432.333 227.186 432.2 226.519 428.466 218.653C424.466 209.986 415.533 201.053 406.466 196.386C400.733 193.453 389.4 192.119 384.2 193.853Z" fill="#3D444D"/>
</g>
</g>
<g id="Muscle.Neck">
<g id="Muscle.Splenius">
<path id="Vector_63" d="M259.598 110.803C258.132 112.136 257.332 115.87 256.798 124.536C255.865 138.403 251.732 152.936 246.932 158.536C245.198 160.803 239.465 164.67 234.398 167.336C229.332 170.003 225.198 172.67 225.198 173.203C225.198 176.536 269.065 176.536 272.265 173.336C273.332 172.27 273.998 163.07 274.265 142.136C274.665 115.203 274.532 112.536 272.398 110.936C269.332 108.67 262.398 108.67 259.598 110.803Z" fill="#3D444D"/>
<path id="Vector_64" d="M288.265 110.136C286.265 110.936 285.731 170.003 287.731 173.07C289.198 175.336 310.931 176.67 325.865 175.203C337.865 174.136 337.731 173.47 323.865 166.136C316.931 162.403 314.531 160.27 311.598 155.07C307.065 146.936 303.865 133.336 303.865 122.003C303.865 111.736 301.998 109.203 294.798 109.336C292.131 109.336 289.065 109.736 288.265 110.136Z" fill="#3D444D"/>
</g>
</g>
<path id="Head" d="M264.532 0.803079C244.799 5.20308 236.265 12.0031 231.732 26.6697C229.332 34.6697 228.932 38.2698 229.465 49.8698C230.265 64.8031 232.665 71.3364 237.732 72.6698C242.132 73.7364 248.799 80.9364 254.532 90.8031L259.332 99.2031L277.998 99.6031C288.132 99.7364 297.732 99.6031 299.332 99.3364C300.932 98.9364 303.598 95.7364 305.865 91.6031C311.732 80.5364 315.332 76.4031 321.732 73.4698C328.132 70.4031 328.265 70.1364 330.665 57.4698C333.865 40.6698 329.332 20.0031 320.398 11.2031C313.332 4.13641 298.132 -0.130254 280.798 0.00307911C273.332 0.136412 265.999 0.403079 264.532 0.803079Z" fill="#3D444D"/>
</g>
<defs>
<filter id="filter0_d_52_509" x="494.843" y="598.601" width="21.4229" height="56.5437" filterUnits="userSpaceOnUse" color-interpolation-filters="sRGB">
<feFlood flood-opacity="0" result="BackgroundImageFix"/>
<feColorMatrix in="SourceAlpha" type="matrix" values="0 0 0 0 0 0 0 0 0 0 0 0 0 0 0 0 0 0 127 0" result="hardAlpha"/>
<feOffset dy="4"/>
<feGaussianBlur stdDeviation="2"/>
<feComposite in2="hardAlpha" operator="out"/>
<feColorMatrix type="matrix" values="0 0 0 0 0 0 0 0 0 0 0 0 0 0 0 0 0 0 0.25 0"/>
<feBlend mode="normal" in2="BackgroundImageFix" result="effect1_dropShadow_52_509"/>
<feBlend mode="normal" in="SourceGraphic" in2="effect1_dropShadow_52_509" result="shape"/>
</filter>
</defs>
</svg>
