<svg width="562" height="1121" viewBox="0 0 562 1121" fill="none" xmlns="http://www.w3.org/2000/svg">
<g id="front">
<g id="Muscle.Feet">
<path id="Vector" d="M197.465 1073.67C195.998 1076.87 193.598 1080.2 179.198 1098.87C175.865 1103.27 173.198 1107.27 173.198 1107.93C173.198 1109.8 181.598 1114.33 186.532 1115.13C189.065 1115.53 194.932 1116.6 199.465 1117.53C208.398 1119.4 209.198 1119 209.198 1112.87C209.198 1111.4 210.665 1106.73 212.532 1102.33C215.065 1096.33 215.865 1092.33 215.732 1085.13L215.598 1075.93L209.198 1073.13C200.798 1069.53 199.332 1069.67 197.465 1073.67Z" fill="#3D444D"/>
<path id="Vector_2" d="M351.331 1073.4C345.064 1076.33 344.931 1076.47 344.531 1083C344.398 1087.27 345.331 1093 347.331 1099C349.064 1104.07 350.931 1110.73 351.598 1113.67C352.264 1116.6 353.331 1118.87 353.998 1118.73C354.664 1118.6 360.531 1117.53 367.064 1116.47C378.264 1114.47 386.398 1111.27 387.464 1108.2C387.731 1107.53 383.864 1101.8 379.064 1095.53C374.131 1089.4 367.998 1081.13 365.464 1077.27C362.931 1073.53 360.131 1070.33 359.331 1070.33C358.531 1070.33 354.931 1071.67 351.331 1073.4Z" fill="#3D444D"/>
<path id="Vector_3" d="M334.665 1087.93C332.932 1092.6 331.465 1098.07 331.598 1100.33C331.598 1104.07 335.065 1118.07 336.398 1119.27C336.665 1119.53 338.932 1120.07 341.465 1120.47C347.732 1121.53 348.265 1119.67 345.065 1107.53C343.732 1102.2 342.532 1096.07 342.532 1093.8C342.532 1091.53 341.465 1087.4 340.132 1084.6L337.865 1079.53L334.665 1087.93Z" fill="#3D444D"/>
<path id="Vector_4" d="M220.265 1085.27C219.465 1087.67 218.398 1093.13 217.865 1097.53C217.331 1101.8 216.131 1107.8 215.065 1110.73C212.265 1118.6 213.598 1121.53 219.465 1120.6C222.131 1120.07 224.398 1119.53 224.665 1119.27C225.731 1118.2 229.598 1103 229.465 1100.33C229.465 1096.87 223.731 1081 222.665 1081C222.131 1081 221.065 1083 220.265 1085.27Z" fill="#3D444D"/>
</g>
<g id="Muscle.Ankle">
<path id="Vector_5" d="M213.864 1002.33C213.331 1003.13 215.064 1006.07 217.464 1008.73C219.998 1011.53 223.464 1016.73 225.331 1020.33L228.531 1027L228.931 1022.73C229.598 1016.6 227.064 1008.6 223.598 1005.4C219.731 1001.93 215.064 1000.47 213.864 1002.33Z" fill="#3D444D"/>
<path id="Vector_6" d="M341.198 1002.73C335.731 1005.53 332.798 1011 332.265 1019.27L331.731 1027L335.865 1019.67C338.131 1015.67 341.465 1010.87 343.198 1009C348.398 1003.53 347.198 999.801 341.198 1002.73Z" fill="#3D444D"/>
<path id="Vector_7" d="M205.331 1017.4C203.464 1019.4 201.998 1023.53 201.198 1028.6C200.398 1033 198.931 1039.27 197.864 1042.33C196.798 1045.4 195.864 1049.27 195.864 1050.87C195.864 1054.33 201.864 1060.2 211.464 1066.2C215.331 1068.6 220.264 1072.33 222.398 1074.6L226.531 1078.73L228.664 1073.53C231.998 1065.67 232.531 1052.47 229.864 1042.33C226.131 1027.67 216.931 1014.33 210.531 1014.33C209.331 1014.33 207.064 1015.8 205.331 1017.4Z" fill="#3D444D"/>
<path id="Vector_8" d="M345.598 1016.33C341.331 1019.27 335.198 1029 332.398 1037.13C328.931 1047 328.798 1067.8 332.265 1074.07L334.665 1078.47L338.265 1074.73C340.265 1072.6 345.198 1068.87 349.198 1066.47C359.065 1060.33 365.198 1054.47 365.198 1051.13C365.198 1049.53 363.998 1044.47 362.531 1039.93C361.065 1035.27 359.865 1029.8 359.865 1027.8C359.865 1023 354.531 1015.13 351.198 1014.6C349.731 1014.47 347.198 1015.13 345.598 1016.33Z" fill="#3D444D"/>
</g>
<g id="Muscle.Legs">
<g id="Muscle.Calves">
<g id="Muscle.Tibialis_Anterior">
<path id="Vector_9" d="M368.665 794.601C368.265 797.001 363.998 821.667 359.065 849.534C345.732 926.467 343.732 941.001 342.932 969.934C341.998 1002.6 343.332 1003.53 352.932 977.001C363.198 948.734 367.198 931.001 371.465 894.334C373.998 873.134 374.665 825.267 372.665 803.267C371.598 790.201 369.865 786.734 368.665 794.601Z" fill="#3D444D"/>
<path id="Vector_10" d="M188.398 799.267C187.731 804.334 187.331 823.667 187.331 842.334C187.331 876.201 189.064 899.401 193.864 927.001C197.731 949.267 213.331 996.334 216.531 995.267C217.331 994.867 217.864 986.334 217.731 971.534C217.598 946.201 215.464 928.467 206.531 877.667C201.198 846.867 193.598 802.067 192.398 794.601C191.331 787.534 189.464 789.667 188.398 799.267Z" fill="#3D444D"/>
</g>
<g id="Muscle.Fibularis_Longus">
<path id="Vector_11" d="M376.531 858.734C376.531 901.001 375.598 907.934 363.198 959.401C355.598 990.467 354.531 997.401 355.998 1006.07C357.198 1014.2 361.198 1023 363.198 1022.2C363.998 1021.93 364.398 1018.33 364.131 1014.2C363.864 1008.6 365.598 998.201 371.064 974.601C375.198 957.001 379.198 937.934 380.131 932.067C382.398 917.134 382.398 840.067 380.131 830.067C379.198 825.801 377.998 822.067 377.464 821.801C376.931 821.534 376.531 838.201 376.531 858.734Z" fill="#3D444D"/>
<path id="Vector_12" d="M180.931 829.934C178.398 840.867 178.531 920.467 181.065 934.334C182.798 944.201 188.931 971.401 194.531 994.867C196.265 1001.93 197.198 1009.67 196.931 1014.2C196.665 1018.33 197.065 1021.93 197.731 1022.33C198.398 1022.73 200.131 1020.6 201.731 1017.67C203.998 1013.27 204.531 1010.07 204.531 999.001C204.398 987.667 203.465 981.801 198.265 960.334C190.665 929.667 188.531 919.401 185.198 896.601C182.531 879.001 182.531 873.401 184.531 834.601C185.331 820.601 183.598 818.334 180.931 829.934Z" fill="#3D444D"/>
</g>
<g id="Muscle.Gastrocnemius">
<path id="Vector_13" d="M238.931 785.267C238.131 787.001 236.265 793.134 234.665 799.001C232.931 804.867 227.865 817.801 223.198 827.667C214.398 846.601 210.531 857.667 210.531 863.934C210.531 878.201 227.331 847.667 239.731 810.601C245.465 793.801 246.131 789.267 243.865 784.867C241.998 781.534 240.665 781.667 238.931 785.267Z" fill="#3D444D"/>
<path id="Vector_14" d="M316.665 784.467C314.931 789.001 316.131 795.401 321.865 812.867C329.065 834.201 344.665 866.734 348.265 867.401C349.865 867.801 350.531 867.001 350.531 864.601C350.531 859.267 345.465 844.201 338.931 830.467C329.598 810.601 327.998 806.867 325.865 797.934C322.931 786.601 321.198 782.334 319.198 782.334C318.265 782.334 317.065 783.267 316.665 784.467Z" fill="#3D444D"/>
</g>
<g id="Muscle.Soleus">
<path id="Vector_15" d="M227.198 855.267C218.131 873.134 217.865 873.801 217.465 884.867C217.198 891.267 218.531 912.601 220.398 932.467C222.265 952.334 223.865 971.401 223.865 974.867C223.865 978.201 224.398 981.001 224.931 981.001C225.465 981.001 227.731 973.934 229.731 965.267C231.865 956.734 235.865 942.201 238.798 933.001C243.598 917.667 243.998 915.267 243.998 901.267C243.865 889.534 238.931 845.667 236.798 837.934C236.665 837.401 232.265 845.134 227.198 855.267Z" fill="#3D444D"/>
<path id="Vector_16" d="M321.464 856.467C315.198 897.934 315.064 915.534 321.064 929.401C322.531 932.867 326.264 945.934 329.464 958.334C332.531 970.867 335.598 981.001 336.131 981.001C336.664 981.001 337.198 977.801 337.198 973.934C337.198 970.201 338.664 951.401 340.531 932.334C342.398 913.267 343.864 892.734 343.864 886.867C343.864 876.067 343.864 875.934 334.131 856.334L324.398 836.601L321.464 856.467Z" fill="#3D444D"/>
</g>
</g>
<g id="Muscle.Quadriceps">
<g id="Muscle.Vastus">
<g id="Muscle.Vastus_Lateralis">
<path id="Vector_17" d="M169.731 629.134C168.798 630.867 171.198 665.001 173.998 685.801C176.531 705.801 180.131 719.134 186.398 732.201C189.198 738.067 191.998 744.467 192.531 746.334C194.665 753.801 198.931 762.334 200.531 762.334C202.931 762.334 203.865 759.134 203.865 750.867C203.865 745.534 201.865 737.401 196.398 721.267C188.665 697.934 181.465 669.934 177.198 646.734C174.931 634.467 172.798 627.667 171.198 627.667C170.931 627.667 170.265 628.334 169.731 629.134Z" fill="#3D444D"/>
<path id="Vector_18" d="M387.732 630.601C386.932 632.201 384.798 641.134 383.065 650.334C378.665 673.667 371.865 699.667 363.998 722.334C358.798 737.401 357.198 743.534 357.198 749.934C357.198 759.134 357.998 762.334 360.532 762.334C362.132 762.334 366.265 753.934 368.532 746.334C369.065 744.467 372.132 737.267 375.332 730.334C382.398 714.601 387.332 691.934 389.198 664.867C389.998 654.334 390.932 641.934 391.332 637.534C392.265 628.734 390.532 625.401 387.732 630.601Z" fill="#3D444D"/>
</g>
<g id="Muscle.Vastus_Medialis">
<path id="Vector_19" d="M233.732 692.067C233.732 705.801 232.665 722.201 231.332 732.867C228.798 752.201 229.065 756.467 233.332 762.467C235.465 765.534 237.065 766.334 239.732 766.067C243.065 765.667 243.198 765.134 243.998 756.334C246.532 726.734 246.798 716.734 245.332 706.734C243.865 697.267 237.198 674.601 234.798 670.734C234.265 669.934 233.865 679.534 233.732 692.067Z" fill="#3D444D"/>
<path id="Vector_20" d="M324.531 673.801C321.465 681.401 317.465 695.534 315.731 705.667C314.265 714.601 314.665 731.401 316.931 756.334C317.865 765.134 317.998 765.667 321.331 766.067C323.998 766.334 325.598 765.534 327.598 762.734C331.865 756.734 332.265 750.867 329.731 732.334C328.265 721.667 327.331 706.067 327.331 692.067C327.198 679.401 327.065 669.001 326.931 669.001C326.665 669.001 325.731 671.134 324.531 673.801Z" fill="#3D444D"/>
</g>
</g>
<g id="Muscle.Rectus_Femoris">
<path id="Vector_21" d="M187.331 522.601C178.264 542.467 171.864 570.467 171.864 589.801C171.864 603.134 176.664 627.934 187.864 672.334C202.664 730.734 211.731 757.001 217.198 757.001C219.598 757.001 223.731 748.601 225.731 739.667C229.198 724.201 230.931 697.801 230.131 672.467C229.064 637.001 224.931 617.001 207.998 564.734C202.931 548.867 197.331 531.001 195.731 525.134C194.131 519.134 192.398 514.334 191.998 514.334C191.598 514.334 189.464 518.067 187.331 522.601Z" fill="#3D444D"/>
<path id="Vector_22" d="M365.331 524.734C363.864 530.334 359.331 544.867 355.331 557.001C333.598 622.734 329.598 645.667 330.931 694.201C331.864 729.534 335.598 750.467 341.731 755.534C344.531 757.934 345.998 756.601 350.398 747.934C355.998 736.734 362.398 715.001 374.531 666.334C388.131 611.267 390.131 597.667 388.131 577.001C386.264 558.467 381.464 540.201 374.531 525.267C371.731 519.267 369.064 514.334 368.798 514.334C368.398 514.334 366.931 519.001 365.331 524.734Z" fill="#3D444D"/>
</g>
</g>
<g id="Muscle.Thighs">
<g id="Muscle.Hip_Adductors">
<path id="Vector_23" d="M205.198 500.201C205.865 501.934 208.798 508.334 211.865 514.334C219.465 529.534 227.865 550.201 240.131 584.334C245.865 600.467 251.198 614.201 251.865 614.867C253.598 616.601 258.131 612.201 261.465 605.801C263.865 601.001 263.998 599.801 262.531 593.134C255.865 563.401 235.198 525.001 215.465 505.934C205.465 496.334 203.198 495.134 205.198 500.201Z" fill="#3D444D"/>
<path id="Vector_24" d="M346.931 504.067C329.998 520.867 311.598 551.801 302.664 577.667C296.531 596.067 296.264 599.534 300.531 607.401C304.131 614.067 307.331 616.734 309.331 614.734C309.864 614.201 313.998 603.134 318.531 590.334C330.664 556.334 337.731 538.601 347.331 518.201C358.664 494.201 358.664 492.334 346.931 504.067Z" fill="#3D444D"/>
<path id="Vector_25" d="M260.132 614.601C256.265 619.934 253.198 625.534 253.198 627.001C253.332 631.534 260.665 672.867 261.465 673.667C262.798 675.001 266.398 652.334 268.532 629.267C271.332 600.734 270.665 599.801 260.132 614.601Z" fill="#3D444D"/>
<path id="Vector_26" d="M291.065 606.867C289.465 611.001 296.798 671.667 299.198 674.067C300.132 675.001 300.665 672.867 304.532 647.934L308.265 624.867L303.998 619.267C301.598 616.201 298.665 612.067 297.465 610.067C294.798 605.667 291.998 604.334 291.065 606.867Z" fill="#3D444D"/>
</g>
</g>
<g id="Muscle.Hips">
<g id="Muscle.Flexors">
<g id="Muscle.Sartorius">
<path id="Vector_27" d="M200.265 509.667C214.932 558.601 243.198 673.267 249.065 707.134C251.598 722.067 251.598 722.067 254.532 709.001C256.532 699.934 256.132 672.601 253.865 658.334C251.065 641.134 243.998 614.467 236.798 594.334C226.398 565.401 195.598 493.667 200.265 509.667Z" fill="#3D444D"/>
<path id="Vector_28" d="M357.998 512.601C354.398 519.667 338.265 557.801 331.065 576.067C307.732 635.667 299.865 683.001 307.998 716.201L309.732 723.001L311.465 711.001C315.465 683.401 335.065 601.934 354.932 529.934C358.132 518.467 360.532 509.001 360.398 509.001C360.132 509.001 359.065 510.601 357.998 512.601Z" fill="#3D444D"/>
</g>
</g>
</g>
</g>
<g id="Knee">
<path id="Vector_29" d="M195.331 774.201C193.331 776.467 192.931 778.334 193.598 784.601C194.531 795.401 202.131 818.067 205.864 821.801C212.531 828.467 221.998 824.067 227.731 811.801C230.798 805.267 231.198 802.601 231.198 790.067C231.198 780.467 230.664 775.267 229.598 774.201C228.531 773.134 222.264 772.334 212.931 771.934C198.931 771.401 197.731 771.534 195.331 774.201Z" fill="#3D444D"/>
<path id="Vector_30" d="M335.465 772.601C330.132 773.401 328.798 777.934 329.465 793.001C329.998 803.267 330.798 807.001 333.598 812.601C337.732 820.601 342.798 825.001 347.865 825.001C353.998 825.001 357.065 820.734 362.132 805.534C367.998 787.267 368.932 779.534 365.998 775.001C363.865 771.801 363.332 771.667 351.465 771.801C344.798 771.934 337.465 772.334 335.465 772.601Z" fill="#3D444D"/>
</g>
<g id="Muscle.Core">
<g id="Muscle.Obliques">
<g id="Muscle.External_Obliques">
<path id="Vector_31" d="M198.531 349.667C197.598 352.867 197.198 356.467 197.598 357.534C198.398 359.401 216.398 372.201 220.531 373.801C222.131 374.467 222.531 373.267 222.531 366.867C222.531 362.467 221.998 358.334 221.464 357.667C220.264 355.801 202.664 343.667 201.331 343.667C200.664 343.667 199.464 346.334 198.531 349.667Z" fill="#3D444D"/>
<path id="Vector_32" d="M195.198 364.867C193.198 376.734 196.531 382.067 215.998 398.467L222.131 403.667L223.064 398.601C224.131 391.934 223.998 381.934 222.798 380.201C222.264 379.401 220.531 378.067 218.931 377.134C217.331 376.334 211.598 372.067 205.998 367.801L196.131 359.801L195.198 364.867Z" fill="#3D444D"/>
<path id="Vector_33" d="M196.398 388.467C195.998 390.201 195.864 396.201 196.131 401.667C196.531 411.134 196.798 411.801 201.864 417.001C207.864 423.134 217.998 430.334 220.798 430.334C222.131 430.334 222.531 427.401 222.531 418.467V406.601L212.931 398.867C207.598 394.601 201.864 389.667 200.264 388.067L197.198 385.134L196.398 388.467Z" fill="#3D444D"/>
<path id="Vector_34" d="M195.198 422.601C193.864 430.601 192.131 470.601 193.064 472.601C193.464 473.401 199.998 480.734 207.598 488.867C218.531 500.601 222.264 503.801 225.998 504.467C228.531 504.867 230.931 505.001 231.331 504.601C231.731 504.334 231.064 500.467 229.998 496.201C228.931 491.801 227.464 479.667 226.664 469.001C224.131 435.934 224.931 438.467 215.198 431.934C210.664 428.734 204.798 424.067 202.398 421.534C199.998 419.001 197.598 417.001 197.064 417.001C196.664 417.001 195.731 419.534 195.198 422.601Z" fill="#3D444D"/>
<path id="Vector_35" d="M212.131 325.001C206.931 329.534 202.398 334.067 201.998 335.001C201.598 336.067 204.264 339.401 207.864 342.867C214.931 349.401 220.531 352.734 222.264 351.134C223.064 350.201 222.798 318.201 221.864 317.267C221.731 317.001 217.331 320.601 212.131 325.001Z" fill="#3D444D"/>
<path id="Vector_36" d="M338.131 333.401C337.731 342.334 337.865 350.201 338.531 350.734C340.398 352.734 344.531 350.467 352.665 343.134L360.531 335.934L353.198 329.001C349.198 325.267 344.265 321.001 342.398 319.667L338.931 317.134L338.131 333.401Z" fill="#3D444D"/>
<path id="Vector_37" d="M351.198 348.601C338.665 357.267 338.531 357.401 338.531 366.467C338.531 373.401 338.798 374.467 340.665 373.801C344.531 372.334 362.798 359.134 363.465 357.401C364.531 354.734 361.065 343.667 359.331 343.801C358.531 343.934 354.931 346.067 351.198 348.601Z" fill="#3D444D"/>
<path id="Vector_38" d="M363.332 360.867C362.665 361.801 356.665 366.734 349.732 371.801L337.198 381.134L337.332 390.067C337.465 404.734 337.598 404.867 350.398 393.801C362.532 383.267 365.065 379.667 365.865 371.667C366.398 365.267 364.798 358.334 363.332 360.867Z" fill="#3D444D"/>
<path id="Vector_39" d="M362.665 385.801C362.531 386.467 357.198 391.534 350.531 396.867L338.531 406.601V418.467C338.531 426.601 339.065 430.334 340.131 430.334C342.665 430.334 353.598 422.734 359.198 417.001C364.131 411.934 364.531 411.001 364.931 402.601C365.198 397.667 364.798 391.534 364.131 389.001C363.331 386.467 362.665 385.001 362.665 385.801Z" fill="#3D444D"/>
<path id="Vector_40" d="M359.331 420.867C357.198 423.001 351.464 427.667 346.531 431.267C335.998 438.734 336.531 436.734 334.398 467.534C333.598 479.667 332.131 492.201 331.064 495.534C328.664 503.667 328.664 505.001 331.864 505.001C337.064 505.001 342.131 501.134 355.064 487.401L367.998 473.667L367.331 449.667C366.531 425.267 365.598 417.001 363.998 417.001C363.464 417.001 361.331 418.734 359.331 420.867Z" fill="#3D444D"/>
</g>
</g>
<g id="Muscle.Abdominal">
<path id="Vector_41" d="M291.331 439.801C281.731 442.067 282.264 438.601 283.198 495.534C283.598 523.801 284.264 549.534 284.664 552.601L285.331 558.201L290.264 556.067C292.931 555.001 297.064 552.734 299.331 551.001C307.598 544.734 315.998 523.534 321.731 494.334C325.331 476.067 329.598 441.267 328.398 439.534C327.464 437.934 297.998 438.201 291.331 439.801Z" fill="#3D444D"/>
<path id="Vector_42" d="M232.798 439.267C231.732 441.001 233.998 463.001 237.332 484.201C242.265 514.467 250.132 537.934 259.198 548.734C262.665 552.867 273.865 558.201 275.598 556.467C276.132 555.934 276.665 529.934 276.932 498.867L277.332 442.334L273.598 440.734C268.932 438.867 233.865 437.534 232.798 439.267Z" fill="#3D444D"/>
<path id="Vector_43" d="M283.198 401.001C282.264 406.467 283.331 427.134 284.664 431.934C285.331 433.934 287.064 434.334 296.264 434.201C309.064 434.201 325.998 432.601 327.198 431.401C329.064 429.667 330.798 411.667 329.598 406.734L328.398 401.801L317.198 399.267C310.931 397.934 300.931 396.467 295.064 396.067L284.131 395.401L283.198 401.001Z" fill="#3D444D"/>
<path id="Vector_44" d="M255.198 396.867C253.732 397.534 248.132 398.734 242.798 399.667C234.398 401.267 232.798 401.934 231.732 404.601C229.065 411.534 231.598 430.734 235.332 432.201C236.532 432.601 245.998 433.401 256.532 433.934L275.732 434.734L276.532 431.534C276.932 429.801 277.065 421.134 276.932 412.334L276.532 396.334L267.198 396.067C262.132 395.934 256.665 396.334 255.198 396.867Z" fill="#3D444D"/>
<path id="Vector_45" d="M285.464 349.267C283.464 351.267 283.198 387.267 285.198 390.334C286.664 392.601 309.731 393.934 322.264 392.334L329.598 391.401L328.664 383.534C327.064 367.934 325.464 366.201 303.464 354.601C289.598 347.267 287.998 346.734 285.464 349.267Z" fill="#3D444D"/>
<path id="Vector_46" d="M255.198 355.801C235.731 366.467 234.665 367.667 232.798 380.067C231.998 385.667 231.865 390.734 232.398 391.267C232.931 391.801 241.731 392.601 251.998 392.734C278.131 393.401 277.198 394.201 277.198 370.867C277.198 352.334 276.131 347.667 272.131 347.667C270.931 347.667 263.331 351.267 255.198 355.801Z" fill="#3D444D"/>
<path id="Vector_47" d="M249.198 306.734C228.532 317.001 227.332 318.601 228.265 335.667C229.198 351.401 231.465 361.001 234.265 361.001C235.465 361.001 245.198 355.667 255.865 349.134C278.265 335.534 277.865 336.067 276.132 316.334C274.798 303.267 272.665 298.201 267.998 298.467C266.798 298.467 258.398 302.201 249.198 306.734Z" fill="#3D444D"/>
<path id="Vector_48" d="M287.465 301.801C285.331 306.201 283.331 327.667 284.665 333.667C285.331 337.134 288.131 339.267 305.198 349.267C315.998 355.801 325.731 361.001 326.798 361.001C331.865 361.001 334.798 325.001 330.265 318.201C327.998 314.734 300.265 300.201 293.065 298.734C289.998 298.201 289.065 298.734 287.465 301.801Z" fill="#3D444D"/>
</g>
</g>
<g id="Fingers">
<path id="Vector_49" d="M24.2646 554.601C22.1313 557.001 18.3979 561.801 16.1313 565.267C13.7313 568.734 9.4646 572.867 6.2646 574.601C1.99793 576.867 0.397928 578.601 0.131262 581.401C-0.268738 584.734 -0.00207164 585.001 4.53126 585.001C8.53126 585.001 10.6646 583.801 15.9979 578.601C21.5979 573.401 23.3313 570.467 26.3979 561.267C28.5313 555.267 29.7313 550.334 29.3313 550.334C28.7979 550.334 26.5313 552.334 24.2646 554.601Z" fill="#3D444D"/>
<path id="Vector_50" d="M534.532 561.134C537.332 569.534 539.598 573.267 544.132 577.934C550.532 584.334 559.465 587.667 560.798 584.334C562.132 580.601 560.398 577.667 554.798 574.601C551.732 572.867 547.332 568.734 545.065 565.401C539.865 557.934 533.198 550.334 531.865 550.334C531.332 550.334 532.532 555.267 534.532 561.134Z" fill="#3D444D"/>
<path id="Vector_51" d="M28.3977 585.134C27.9977 585.934 25.331 590.867 22.531 596.067C19.731 601.401 15.331 609.801 12.6643 614.734C7.99767 623.667 6.66434 629.001 9.06434 629.001C10.6643 629.001 17.4643 620.601 26.3977 607.534C30.2643 601.934 34.531 596.201 35.8643 595.001C39.9977 591.267 39.331 586.867 34.3977 585.134C29.1977 583.401 29.5977 583.401 28.3977 585.134Z" fill="#3D444D"/>
<path id="Vector_52" d="M526.265 585.267C521.865 586.867 521.198 591.401 525.065 594.867C526.398 596.067 531.598 603.001 536.398 610.067C546.798 625.267 549.731 629.001 551.731 629.001C554.531 629.001 553.198 624.067 547.865 614.201C544.931 608.734 540.131 599.667 537.198 593.934C534.265 588.334 531.331 583.667 530.798 583.801C530.265 583.801 528.265 584.467 526.265 585.267Z" fill="#3D444D"/>
<path id="Vector_53" d="M38.5317 599.801C37.7317 602.734 33.9983 612.734 30.3983 622.067C23.7317 639.134 22.5317 645.001 25.5983 645.001C29.465 645.001 32.1317 640.734 41.1983 619.134C51.465 595.267 51.5983 594.334 43.5983 594.334C40.5317 594.334 39.7317 595.134 38.5317 599.801Z" fill="#3D444D"/>
<path id="Vector_54" d="M511.998 595.534C510.265 596.601 510.398 597.534 512.131 601.934C528.665 641.267 530.665 645.001 535.465 645.001C538.398 645.001 537.465 640.201 530.665 622.334C526.931 612.867 523.331 602.734 522.531 599.667C521.331 595.134 520.531 594.334 517.465 594.334C515.465 594.334 513.065 594.867 511.998 595.534Z" fill="#3D444D"/>
<path id="Vector_55" d="M72.2646 597.934C71.0646 598.334 70.5312 602.867 70.5312 613.667C70.5312 628.601 71.1979 633.001 73.1979 633.001C75.4646 633.001 77.0646 624.867 77.4646 611.267C77.8646 596.467 77.5979 595.667 72.2646 597.934Z" fill="#3D444D"/>
<path id="Vector_56" d="M483.597 611.934C484.264 626.867 485.331 633.001 487.597 633.001C489.464 633.001 490.531 624.601 490.531 610.867C490.531 600.867 490.131 598.467 488.397 597.801C483.197 595.801 482.931 596.467 483.597 611.934Z" fill="#3D444D"/>
<path id="Vector_57" d="M53.8643 601.267C52.6643 606.734 47.8643 639.934 47.8643 643.134C47.8643 645.401 48.6643 646.334 50.5309 646.334C53.4643 646.334 53.9976 644.867 59.1976 618.467C61.9976 603.934 62.3976 600.334 60.9309 599.534C57.7309 597.401 54.5309 598.334 53.8643 601.267Z" fill="#3D444D"/>
<path id="Vector_58" d="M500.132 599.534C498.665 600.467 498.932 603.934 501.865 618.467C503.732 628.334 505.865 638.467 506.665 641.134C507.998 646.467 511.465 648.867 512.798 645.534C513.465 643.667 510.532 620.334 507.732 605.267C506.265 598.201 504.398 596.734 500.132 599.534Z" fill="#3D444D"/>
</g>
<g id="Muscle.Arms">
<g id="Muscle.Forearms">
<g id="Muscle.Brachioradialis">
<path id="Vector_59" d="M109.465 363.267C104.932 366.467 96.5316 379.534 86.9316 398.467C85.9982 400.334 84.5316 408.467 83.7316 416.467C82.9316 424.467 78.5316 450.334 73.7316 474.067C69.0649 497.801 65.1982 519.534 65.1982 522.467C65.1982 534.334 71.5982 525.534 80.7982 501.001C82.2649 497.001 90.2649 476.734 98.3982 455.934C111.865 421.934 113.598 416.734 115.198 403.934C118.132 382.467 117.465 362.467 113.865 361.534C113.065 361.267 111.198 362.067 109.465 363.267Z" fill="#3D444D"/>
<path id="Vector_60" d="M445.465 363.267C443.732 367.667 444.665 402.601 446.932 412.601C448.132 417.801 453.998 434.334 459.998 449.267C465.998 464.201 474.132 484.867 477.998 495.267C486.532 518.201 491.198 527.667 493.865 527.667C497.732 527.667 497.198 524.201 486.132 468.334C481.998 447.801 477.998 424.734 477.198 417.001C475.998 404.067 475.465 402.067 469.065 389.667C461.598 375.001 457.198 368.601 451.998 364.067C447.732 360.467 446.665 360.334 445.465 363.267Z" fill="#3D444D"/>
</g>
<g id="Muscle.Flexor_Carpi_Radialis">
<path id="Vector_61" d="M125.198 390.334C124.398 391.801 122.398 399.534 120.532 407.534C118.398 417.267 114.798 427.801 109.332 439.801C94.265 473.667 76.3983 522.334 77.865 526.067C78.5316 528.067 78.9316 527.934 81.1983 525.001C83.865 521.401 83.865 521.534 95.3316 494.334C104.532 472.334 111.732 457.667 116.932 450.067C129.332 431.934 137.732 405.534 135.332 392.334C134.532 388.201 133.865 387.667 130.532 387.667C127.998 387.667 126.132 388.601 125.198 390.334Z" fill="#3D444D"/>
<path id="Vector_62" d="M425.731 392.467C423.331 405.667 431.597 431.801 444.264 450.201C448.531 456.334 462.131 485.267 471.864 508.734C474.931 516.334 478.664 523.801 479.997 525.401C482.131 528.067 482.397 528.067 483.197 526.067C484.664 522.467 467.731 476.334 453.864 445.667C444.797 425.401 443.331 421.401 440.531 407.534C437.331 391.934 435.197 387.667 430.397 387.667C427.197 387.667 426.531 388.334 425.731 392.467Z" fill="#3D444D"/>
</g>
<g id="Muscle.Wrist">
<path id="Vector_63" d="M51.8644 539.667C44.5311 543.534 35.9977 551.534 33.1977 557.134C27.5977 568.067 31.0644 576.601 44.9311 585.934C56.5311 593.667 66.6644 596.334 75.9977 593.934C82.1311 592.334 85.5977 581.401 87.3311 559.001C88.2644 547.934 88.2644 547.801 84.2644 543.934C77.5977 537.267 60.5311 535.001 51.8644 539.667Z" fill="#3D444D"/>
<path id="Vector_64" d="M484.931 539.134C481.331 540.201 477.464 542.601 475.731 544.734C473.198 548.067 472.931 549.401 473.731 559.801C475.864 591.001 481.331 598.334 499.064 593.667C508.398 591.267 510.531 590.067 519.464 583.534C530.531 575.267 532.798 568.201 527.998 557.401C525.331 551.667 514.398 541.934 506.931 538.867C501.464 536.467 492.931 536.601 484.931 539.134Z" fill="#3D444D"/>
<g id="Muscle.Wrist_Flexors">
<path id="Vector_65" d="M137.198 409.267C134.532 424.734 128.398 439.667 118.398 455.267C113.065 463.534 105.865 477.534 101.332 488.334C91.865 510.867 84.9316 530.334 86.3983 530.334C87.5983 530.334 96.9316 511.001 107.065 487.134C111.198 477.667 117.865 464.067 121.998 456.867C129.998 442.867 145.198 409.667 145.198 406.201C145.198 404.334 141.332 399.667 139.598 399.667C139.332 399.667 138.132 404.067 137.198 409.267Z" fill="#3D444D"/>
<path id="Vector_66" d="M417.864 402.334C416.264 404.067 415.864 405.934 416.398 408.334C417.998 414.734 430.931 442.734 438.264 455.667C445.598 468.734 449.464 476.467 455.331 490.734C461.331 505.267 473.598 530.334 474.664 530.334C475.998 530.334 471.198 516.601 463.198 497.001C453.331 473.267 449.998 466.334 443.464 456.734C440.131 451.801 435.864 445.001 434.131 441.401C429.864 433.134 424.264 415.134 423.064 406.467C422.131 399.001 421.464 398.467 417.864 402.334Z" fill="#3D444D"/>
</g>
</g>
</g>
<g id="Muscle.Upper_Arms">
<g id="Muscle.Coracobrachialis">
<path id="Vector_67" d="M167.731 272.601C162.531 295.401 155.731 314.734 139.864 351.134C133.064 366.867 131.997 371.267 134.797 374.067C137.997 377.267 141.064 375.534 147.197 367.267C155.197 356.734 166.131 333.934 172.664 314.334C177.064 301.134 177.731 297.267 177.731 287.001C177.864 275.134 174.531 259.667 171.864 259.667C171.197 259.667 169.331 265.534 167.731 272.601Z" fill="#3D444D"/>
<path id="Vector_68" d="M387.198 261.267C384.665 268.334 382.531 280.201 382.531 287.134C382.531 305.934 400.798 351.667 415.465 369.934C420.265 375.934 423.731 377.001 426.531 373.667C429.065 370.601 427.731 366.601 415.465 337.667C403.731 309.934 396.265 287.801 392.531 269.934C390.531 260.334 388.665 257.267 387.198 261.267Z" fill="#3D444D"/>
</g>
<g id="Muscle.Biceps">
<path id="Vector_69" d="M138.264 279.801C135.198 281.534 125.731 295.534 122.264 303.267C118.531 311.801 115.998 327.401 115.864 342.601C115.864 355.267 115.998 355.667 119.064 356.467C122.131 357.134 129.464 354.201 134.798 349.934C138.398 347.134 147.598 326.734 150.531 315.134C153.598 303.267 153.864 296.067 151.731 288.334C149.198 279.267 144.398 276.201 138.264 279.801Z" fill="#3D444D"/>
<path id="Vector_70" d="M412.665 280.867C404.932 289.401 406.398 308.467 416.798 333.534C422.398 346.867 427.732 353.001 435.998 355.534C443.732 357.801 445.198 356.201 445.198 345.134C445.198 325.801 442.665 313.134 436.532 300.334C427.465 281.667 418.532 274.334 412.665 280.867Z" fill="#3D444D"/>
</g>
</g>
</g>
<g id="Muscle.Chest">
<g id="Muscle.Serratus_Anterior">
<path id="Vector_71" d="M185.997 288.601C184.531 290.067 185.197 295.667 187.197 300.467C188.664 304.201 190.664 305.801 196.797 308.467C209.597 314.201 215.864 314.201 213.731 308.467C213.197 307.267 210.131 304.601 206.664 302.601C203.331 300.601 197.464 296.467 193.597 293.401C189.864 290.334 186.397 288.201 185.997 288.601Z" fill="#3D444D"/>
<path id="Vector_72" d="M369.065 291.667C366.532 293.934 360.398 298.601 355.465 301.801C349.198 305.934 346.532 308.467 346.798 310.067C347.465 313.534 351.332 313.534 359.998 310.334C370.132 306.467 373.998 302.867 375.198 295.801C376.532 287.934 374.665 286.734 369.065 291.667Z" fill="#3D444D"/>
<path id="Vector_73" d="M183.464 303.134C181.331 305.267 182.798 312.067 187.198 320.601C193.598 332.867 194.798 333.934 198.798 331.267C203.331 328.201 210.531 321.267 210.531 320.067C210.531 319.401 205.731 316.867 199.998 314.601C192.264 311.401 188.664 309.134 186.931 306.201C185.464 304.067 183.998 302.734 183.464 303.134Z" fill="#3D444D"/>
<path id="Vector_74" d="M372.798 307.001C370.265 310.201 366.265 312.601 358.932 315.401L348.665 319.401L355.998 326.201C359.998 329.934 363.865 333.001 364.665 333.001C367.865 333.001 378.532 313.001 378.532 306.867C378.532 302.067 376.665 302.067 372.798 307.001Z" fill="#3D444D"/>
<path id="Vector_75" d="M184.264 332.334C184.798 341.934 190.664 356.601 193.198 355.001C193.864 354.601 195.064 351.001 195.998 347.001C197.731 339.134 197.331 338.201 187.198 327.001L183.598 323.001L184.264 332.334Z" fill="#3D444D"/>
<path id="Vector_76" d="M370.131 331.001C363.331 339.534 362.798 342.601 366.665 352.467L367.998 356.201L371.065 351.001C375.465 343.667 377.465 336.067 376.931 329.001L376.531 323.001L370.131 331.001Z" fill="#3D444D"/>
</g>
<g id="Muscle.Pectoralis">
<path id="Vector_77" d="M215.198 200.201C202.398 204.201 189.865 214.467 185.731 224.334C182.265 232.467 181.598 258.201 184.531 268.334C189.865 287.001 197.731 296.067 212.665 301.001C224.398 305.001 238.798 305.267 249.598 301.801C258.398 298.867 268.665 290.601 271.331 284.201C272.398 281.801 273.865 271.401 274.798 261.134C277.465 230.067 272.798 210.734 260.798 201.801C257.465 199.267 254.931 199.001 238.798 198.734C226.665 198.467 218.665 199.001 215.198 200.201Z" fill="#3D444D"/>
<path id="Vector_78" d="M305.198 199.267C297.598 200.734 290.664 210.867 287.198 225.267C283.598 240.601 285.598 275.534 290.531 285.667C293.731 291.934 301.864 298.334 311.198 301.801C325.598 307.134 351.064 303.267 361.998 293.801C373.464 283.934 379.198 266.334 378.131 244.334C377.731 237.001 376.664 228.601 375.864 225.801C373.731 218.867 362.664 208.067 352.531 203.001C344.931 199.267 343.598 199.001 326.531 198.867C316.664 198.734 307.064 198.867 305.198 199.267Z" fill="#3D444D"/>
</g>
</g>
<g id="Muscle.Shoulders">
<g id="Muscle.Deltoids">
<path id="Vector_79" d="M168.265 186.201C157.732 188.867 138.798 204.334 132.265 215.401C129.332 220.201 128.665 223.534 128.265 232.201C127.732 241.934 128.132 243.667 131.465 250.201C136.132 259.134 147.465 269.001 153.198 269.001C156.398 269.001 158.532 267.267 165.198 259.401C174.265 248.601 175.865 244.334 175.865 230.601C175.865 215.667 179.598 210.734 195.732 204.201C203.732 200.867 204.532 198.867 200.132 193.801C194.798 187.801 177.865 183.801 168.265 186.201Z" fill="#3D444D"/>
<path id="Vector_80" d="M371.865 187.534C364.665 190.067 356.532 197.134 357.465 199.934C357.732 200.601 361.332 202.734 365.598 204.334C381.732 211.001 385.198 215.934 385.198 232.601C385.198 245.667 387.598 250.867 398.132 262.067C405.732 270.067 406.265 270.334 409.865 269.001C422.265 264.334 433.198 248.067 433.198 234.334C433.198 221.534 430.132 215.001 418.665 203.534C401.998 187.001 387.332 182.067 371.865 187.534Z" fill="#3D444D"/>
</g>
</g>
<g id="Muscle.Back">
<g id="Muscle.Upper_Trapezius">
<path id="Vector_81" d="M233.998 170.867C229.064 174.734 221.464 179.934 217.198 182.467C212.798 185.001 209.198 187.401 209.198 187.934C209.064 190.734 237.598 194.201 240.931 191.934C241.864 191.267 243.331 188.334 243.864 185.534C245.464 178.867 245.598 165.401 243.998 164.467C243.464 164.067 238.931 167.001 233.998 170.867Z" fill="#3D444D"/>
<path id="Vector_82" d="M316.798 164.601C315.465 165.801 315.732 179.401 317.198 185.534C317.732 188.334 319.198 191.267 320.132 191.934C323.598 194.334 351.865 190.734 351.865 187.934C351.865 187.401 348.398 185.134 344.132 182.734C339.998 180.467 332.398 175.134 327.332 171.134C322.265 167.001 317.998 163.667 317.865 163.667C317.732 163.667 317.198 164.067 316.798 164.601Z" fill="#3D444D"/>
</g>
</g>
<g id="Muscle.Neck">
<g id="Muscle.Sternocleidomastoid">
<path id="Vector_83" d="M249.598 139.934C250.131 148.334 251.598 154.467 255.731 165.401C266.931 195.134 274.531 203.667 274.531 186.334C274.531 179.934 271.331 168.201 266.931 158.334C265.465 155.001 262.931 148.867 261.198 144.467C257.998 136.467 252.665 129.001 250.265 129.001C249.331 129.001 249.065 132.734 249.598 139.934Z" fill="#3D444D"/>
<path id="Vector_84" d="M306.798 132.067C303.465 135.534 291.865 161.801 288.531 173.267C286.131 181.667 286.265 194.467 288.798 195.267C291.331 196.201 297.198 185.667 303.998 168.334C309.331 154.601 310.398 150.734 310.798 140.601C311.065 134.201 310.931 129.001 310.531 129.001C309.998 129.001 308.398 130.334 306.798 132.067Z" fill="#3D444D"/>
<path id="Vector_85" d="M261.331 134.601C263.465 136.334 266.931 143.801 274.798 163.934C277.065 169.667 279.598 174.334 280.531 174.334C281.465 174.334 283.998 169.667 286.265 163.934C294.265 143.667 297.598 136.334 299.731 134.601C301.465 133.134 300.398 133.001 293.198 133.934C282.665 135.134 278.931 135.134 267.865 133.801C260.531 133.001 259.598 133.134 261.331 134.601Z" fill="#3D444D"/>
<path id="Vector_86" d="M248.798 163.134C247.331 164.734 247.864 181.267 249.598 185.401C251.064 188.734 262.398 197.667 263.598 196.467C263.864 196.201 261.064 189.134 257.464 180.734C253.731 172.467 250.531 164.867 250.264 163.934C249.998 163.001 249.331 162.601 248.798 163.134Z" fill="#3D444D"/>
<path id="Vector_87" d="M304.131 179.267C300.265 188.467 297.331 196.201 297.598 196.601C298.665 197.534 309.865 188.201 311.465 185.001C313.331 181.401 313.865 164.201 312.265 163.267C311.598 162.867 307.998 170.201 304.131 179.267Z" fill="#3D444D"/>
</g>
</g>
<path id="Vector_88" d="M260.532 1.53401C244.398 6.20068 238.932 10.334 233.598 21.934C230.532 28.6007 229.998 31.534 229.998 43.0007C229.865 56.2007 234.132 85.0007 236.132 85.0007C236.798 85.0007 237.198 80.8674 237.198 75.6674C237.198 65.0007 239.332 53.6674 241.865 51.134C243.998 49.134 246.532 40.4673 246.532 35.534C246.532 28.2007 249.598 26.8673 267.865 25.934C277.065 25.534 290.398 25.534 297.598 26.0673C312.265 27.134 314.532 28.6007 314.532 36.334C314.532 41.534 316.932 48.8674 319.598 52.0674C321.332 54.0674 323.465 69.4007 323.865 82.6007C323.865 86.6007 326.532 85.2674 326.532 81.2674C326.532 79.2674 327.732 71.4007 329.332 63.6674C332.532 47.2674 332.132 34.6007 327.865 23.2673C321.998 7.40068 309.065 0.867346 282.532 0.0673458C272.132 -0.199321 265.065 0.334013 260.532 1.53401Z" fill="#3D444D"/>
</g>
</svg>
