<svg width="362" height="363" viewBox="0 0 362 363" fill="none" xmlns="http://www.w3.org/2000/svg">
<path d="M138.933 3.33333C135.067 6.8 134.933 6.93333 134.4 23.0667C133.733 41.8667 131.333 49.2 122.933 57.8667C112.933 68.2667 103.733 71.4667 64.2667 78.8C40.1333 83.3333 30 87.6 19.3333 97.6C6.26667 109.867 0 127.6 0 152.133C0 207.2 21.2 346.8 31.4667 358.667C34.4 362.133 34.6667 362.133 55.7333 362.533L77.0667 362.933L78 352.8C79.6 336.4 77.8667 270.8 75.3333 253.467C72.1333 230.4 65.8667 200.4 59.8667 179.2C53.7333 158 53.6 154.267 58.8 153.733C60.6667 153.467 62.8 154.133 63.6 155.067C67.3333 159.6 79.4667 207.6 83.8667 234.8C88.8 265.2 90 283.6 89.8667 323.733V362.8H132.267H174.667V323.067C174.667 294 175.067 282.933 176.267 281.733C178.667 279.333 183.733 279.867 185.333 282.667C186.133 284.267 186.667 299.867 186.667 324V362.8H229.333H272L271.2 333.733C269.467 277.867 276 226.533 291.6 172.8C294.133 164 296.933 156 297.733 155.067C298.4 154.133 300.667 153.467 302.533 153.733C307.6 154.267 307.467 158.267 302 177.333C292.8 209.333 287.067 240 284.133 272.133C282.533 288.933 282.133 344.533 283.6 355.867L284.4 362.933L305.6 362.533C334.133 362 331.2 366.133 342 313.467C351.867 266.4 361.333 186.933 361.333 152.8C361.333 128.667 354.667 109.467 341.867 97.4667C331.2 87.3333 321.2 83.3333 296 78.8C259.2 72.1333 248 68 238.667 58C229.733 48.2667 227.6 42 226.8 23.2C225.6 -0.800003 229.067 0.933331 181.467 0.399997L143.067 -2.65241e-06L138.933 3.33333ZM135.733 120.4C139.733 125.6 140.133 161.333 136.133 177.6C133.333 189.467 127.867 202.8 124.667 205.467C122.267 207.467 118.667 206.8 116.933 204C115.867 202.267 116.533 199.333 119.733 191.867C126.533 175.333 128.533 162.533 127.467 139.867C126.533 119.6 126.667 119.2 132.133 118.933C133.333 118.8 134.933 119.6 135.733 120.4ZM232.533 119.6C234.4 120.4 234.667 122.8 233.867 140C232.8 161.867 234.8 175.6 240.933 190.133C245.467 201.2 245.867 203.333 243.467 205.333C239.333 208.8 235.333 206 231.467 197.067C223.6 178.533 220.8 158.133 222.933 135.6C224.4 119.6 225.867 117.067 232.533 119.6ZM185.333 234.667C186 236.133 186.667 242.133 186.667 248.133C186.667 260.533 185.333 264.133 180.667 264.133C178.8 264.133 176.8 263.067 176 261.6C174.133 257.867 174.267 235.733 176.267 233.733C178.667 231.333 183.733 231.867 185.333 234.667ZM142.8 278.8C146.8 284.133 149.733 298.267 148.8 306.8C147.067 321.467 139.333 332.533 134 328.133C131.333 325.867 131.467 322.8 134.667 316C138.133 308.133 138.133 297.6 134.4 287.2C132 280.267 131.867 278.667 133.333 276.8C135.733 273.867 139.867 274.8 142.8 278.8ZM228 276.933C229.467 278.533 229.333 280.4 226.933 287.2C223.2 297.6 223.2 308.133 226.667 316C229.867 322.8 230 325.867 227.333 328.133C223.867 330.933 219.867 328.267 216.267 320.4C211.467 310.133 211.333 293.6 215.867 283.467C217.467 279.867 219.6 276.4 220.4 275.867C222.933 274.267 226.267 274.667 228 276.933Z" fill="black"/>
</svg>
