<svg width="346" height="110" viewBox="0 0 346 110" fill="none" xmlns="http://www.w3.org/2000/svg">
<path d="M30.667 54.6667V109.333H42.667H54.667V54.6667V-3.15905e-06H42.667H30.667V54.6667Z" fill="black"/>
<path d="M290.667 54.6667V109.333H302.667H314.667V54.6667V-3.15905e-06H302.667H290.667V54.6667Z" fill="black"/>
<path d="M0 54.6666V89.4666L11.7333 89.0666L23.3333 88.6666V54.6666V20.6666L11.7333 20.2666L0 19.8666V54.6666Z" fill="black"/>
<path d="M322 21.7333C321.6 22.6666 321.466 38.1333 321.6 56L322 88.6666L333.733 89.0666L345.333 89.4666V54.6666V20H334C326 20 322.4 20.5333 322 21.7333Z" fill="black"/>
<path d="M62.667 54.6668V64.0001H172.667H282.667V54.6668V45.3334H172.667H62.667V54.6668Z" fill="black"/>
</svg>
