<svg width="301" height="287" viewBox="0 0 301 287" fill="none" xmlns="http://www.w3.org/2000/svg">
<g id="Bike">
<path id="Vector" d="M175.625 75.6877C177.406 76.8166 177.406 76.8166 179 78.0002C180.031 78.7015 181.063 79.4027 182.125 80.1252C184.561 82.2821 186.091 84.609 187.731 87.4104C188.253 88.2989 188.776 89.1874 189.315 90.1028C189.871 91.0589 190.427 92.0151 191 93.0002C191.577 93.9848 192.154 94.9693 192.748 95.9836C194.566 99.0905 196.378 102.201 198.188 105.313C199.41 107.413 200.633 109.513 201.856 111.614C202.388 112.529 202.921 113.445 203.47 114.388C203.975 115.25 204.48 116.112 205 117C205.613 118.334 205.613 118.334 206.238 119.694C208.705 122.922 211.544 123.428 215.336 124.281C216.052 124.462 216.769 124.643 217.507 124.829C219.792 125.405 222.082 125.955 224.375 126.5C226.661 127.046 228.943 127.597 231.222 128.171C232.637 128.527 234.056 128.868 235.479 129.19C241.622 130.735 244.568 133.852 248 139C248.457 144.573 248.244 148.243 245 153C241.673 156.161 238.869 157.302 234.375 157.563C225.375 157.219 216.613 154.45 208 152C207.255 151.792 206.51 151.584 205.742 151.369C189.901 146.861 184.792 139.887 177 126C167.048 130.763 157.573 136.099 148.106 141.753C144.738 143.748 141.34 145.689 137.938 147.625C136.792 148.277 135.646 148.93 134.465 149.602C133.245 150.294 133.245 150.294 132 151C133.091 158.029 133.091 158.029 134.98 164.871C139.1 177.161 138.604 189.747 138.522 202.583C138.507 205.253 138.504 207.921 138.522 210.591C138.546 214.479 138.543 218.366 138.531 222.254C138.54 223.445 138.548 224.635 138.556 225.862C138.485 232.154 138.397 236.306 134 241C129.265 243.681 125.415 244.689 120 244C115.558 241.694 113.021 239.568 111 235C110.591 231.325 110.655 227.674 110.699 223.981C110.692 221.737 110.683 219.492 110.674 217.248C110.676 213.75 110.687 210.251 110.715 206.753C110.82 189.915 108.781 175.133 104 159C103.42 156.949 102.843 154.896 102.268 152.843C101.296 149.368 100.308 145.898 99.2971 142.434C98.9665 141.294 98.9665 141.294 98.6293 140.131C98.0605 138.204 97.4599 136.287 96.8557 134.371C94.9698 126.94 94.4058 118.066 97.9377 111.063C104.09 102.292 112.715 97.0885 122 92.1252C124.212 90.9172 126.423 89.7075 128.633 88.4963C129.711 87.9083 130.789 87.3204 131.9 86.7146C136.988 83.9012 141.98 80.9302 146.961 77.9324C154.912 73.1807 166.9 71.4698 175.625 75.6877Z" fill="#020202"/>
<path id="Vector_2" d="M225.285 169.852C239.468 169.267 250.479 174.323 260.703 183.684C270.511 193.574 274.43 205.062 274.439 218.788C274.03 232.233 267.164 242.275 257.688 251.25C247.767 259.691 236.864 262.538 224.004 262.242C212.488 261.314 201.736 256.281 193.688 247.938C183.953 236.105 180.749 223.107 182 208C184.05 196.134 190.366 186.181 199.668 178.567C207.859 173.065 215.604 170.481 225.285 169.852ZM199.957 191.106C192.962 199.533 190.261 207.581 190.618 218.539C191.754 228.816 196.635 238.768 204.75 245.313C212.878 250.951 222.163 253.924 232 253C244.144 250.458 252.76 245.088 260 235C265.102 225.895 266.562 216.049 263.813 205.938C260.506 196.003 254.352 188.041 245 183.188C228.724 175.747 212.603 178.073 199.957 191.106Z" fill="#080808"/>
<path id="Vector_3" d="M229.875 38.625C236.899 42.3301 241.796 46.7758 245.113 54.0938C247.368 61.4851 247.195 69.2801 244.062 76.375C240.042 83.2301 234.548 88.4824 226.937 91C219.24 92.8294 212.158 92.6277 205 89C197.662 83.8685 193.819 78.4579 191 70C190.078 60.9176 191.955 53.8925 196.75 46.1875C205.637 37.5471 218.018 33.7356 229.875 38.625Z" fill="#020202"/>
<path id="Vector_4" d="M163 146C166.92 147.923 170.697 150.107 174.5 152.25C175.545 152.824 176.591 153.397 177.668 153.988C179.178 154.837 179.178 154.837 180.719 155.703C181.636 156.215 182.553 156.727 183.498 157.255C187.219 159.85 190.49 163.261 191.344 167.848C191.786 174.118 189.919 176.907 186.039 181.654C182.82 185.358 179.429 188.857 175.949 192.317C174.839 193.429 174.839 193.429 173.707 194.565C172.159 196.114 170.608 197.661 169.055 199.205C166.669 201.581 164.294 203.967 161.92 206.354C160.409 207.863 158.898 209.371 157.387 210.879C156.675 211.595 155.964 212.31 155.231 213.047C154.573 213.699 153.915 214.35 153.237 215.022C152.369 215.887 152.369 215.887 151.484 216.77C150 218 150 218 148 218C147.876 212.68 147.786 207.361 147.725 202.039C147.7 200.23 147.666 198.421 147.623 196.613C147.562 194.009 147.534 191.406 147.512 188.801C147.486 187.996 147.46 187.19 147.434 186.36C147.431 181.98 147.546 180.525 150.531 177.075C151.345 176.39 152.16 175.706 153 175C153 174.34 153 173.68 153 173C151.572 172.077 150.106 171.211 148.625 170.375C145.232 168.202 143.422 166.843 142.438 162.875C142 159 142 159 142 155C143.497 153.612 143.497 153.612 145.578 152.387C146.327 151.944 147.076 151.501 147.848 151.045C148.64 150.597 149.433 150.149 150.25 149.688C151.027 149.22 151.805 148.753 152.605 148.272C159.109 144.509 159.109 144.509 163 146Z" fill="#040404"/>
<path id="Vector_5" d="M98.0003 178C100.393 180.05 100.971 180.911 102 184C102.069 185.895 102.085 187.792 102.063 189.687C102.054 190.681 102.045 191.675 102.035 192.699C102.024 193.458 102.012 194.218 102 195C101.361 194.299 100.722 193.597 100.063 192.875C92.1466 184.981 82.1988 180.069 71.0003 179.625C62.2525 179.696 52.6635 183.312 46.0003 189C37.705 198.387 34.2727 207.535 35.0003 220C36.154 228.752 40.3672 237.385 46.8362 243.398C55.9523 250.145 65.0645 253.093 76.2347 251.727C85.7606 249.936 92.9405 245.742 99.4065 238.574C101 237 101 237 103 237C106.05 242.245 106.05 242.245 105.836 245.488C103.806 251.589 96.2956 254.999 90.8753 257.812C79.9687 262.882 67.5404 264.008 56.0003 260C45.338 255.9 35.7215 247.972 30.0003 238C24.7547 226.193 22.6492 212.865 26.9573 200.406C32.7359 187.074 41.6321 177.583 55.2503 172.125C69.9184 167.724 84.9839 169.899 98.0003 178Z" fill="#080808"/>
<path id="Vector_6" d="M207 185C207.66 185.33 208.32 185.66 209 186C205.37 189.63 201.74 193.26 198 197C198 193.476 198.551 192.985 200.812 190.438C201.596 189.538 201.596 189.538 202.395 188.621C204 187 204 187 207 185Z" fill="#DBDBDC"/>
<path id="Vector_7" d="M50 185C50.66 185.33 51.32 185.66 52 186C48.37 189.63 44.74 193.26 41 197C41 192.841 43.2468 190.855 46 188C48.3125 186.125 48.3125 186.125 50 185Z" fill="#D6D6D8"/>
</g>
</svg>
