<svg width="346" height="155" viewBox="0 0 346 155" fill="none" xmlns="http://www.w3.org/2000/svg">
<path d="M26.9158 1.00396C20.1158 2.33729 11.1824 14.8706 6.11577 30.0706C-2.68423 57.2706 -1.88423 103.404 7.8491 129.404C11.4491 139.004 17.5824 148.604 21.8491 151.404C25.0491 153.537 41.3158 155.937 41.3158 154.337C41.3158 153.937 39.1824 150.604 36.6491 146.737C31.3158 138.737 24.9158 119.937 22.5158 104.737C20.1158 89.404 20.3824 60.4706 23.0491 46.604C26.1158 30.8706 31.1824 16.7373 36.6491 8.47063C39.1824 4.60396 41.3158 1.13729 41.3158 0.737293C41.3158 -0.0627075 31.4491 0.203959 26.9158 1.00396Z" fill="black"/>
<path d="M281.849 1.93734C267.183 8.33734 256.916 39.5373 256.916 77.404C256.916 115.671 267.316 146.737 282.116 152.871C286.516 154.737 298.649 155.537 298.649 153.937C298.649 153.537 297.183 151.271 295.449 149.004C282.249 131.271 275.049 94.3373 278.383 60.8707C280.783 36.604 285.583 20.604 294.116 7.93734C296.649 4.20401 298.649 0.870675 298.649 0.604008C298.649 -0.729325 285.583 0.337341 281.849 1.93734Z" fill="black"/>
<path d="M311.849 1.67063C283.449 12.204 275.849 106.071 300.382 142.337C310.649 157.404 320.916 157.671 330.649 143.137C339.716 129.271 343.849 112.071 344.916 83.9373C346.249 47.9373 339.316 19.5373 326.116 6.33729C321.182 1.27063 316.782 -0.0627065 311.849 1.67063Z" fill="black"/>
<path d="M48.9162 5.27053C42.9162 10.6039 38.1162 19.8039 34.1162 33.8039C19.9828 82.7372 34.3828 153.404 58.5162 153.404C64.5162 153.404 69.3162 150.071 74.1162 142.604C78.5162 135.671 83.1828 122.604 85.1828 112.071C85.9828 107.271 87.0495 101.804 87.4495 99.9372L88.1162 96.3372L76.6495 95.9372C65.3162 95.4039 65.0495 95.2705 60.6495 90.4705C55.4495 84.7372 53.9828 80.6039 55.1828 74.2039C57.1828 63.9372 65.1828 58.7372 79.3162 58.7372H87.9828L87.1828 53.0039C84.1162 33.0039 75.3162 11.1372 67.8495 4.87053C62.1162 -0.062805 54.7828 0.203862 48.9162 5.27053Z" fill="black"/>
<path d="M65.9825 70.0707C61.7158 74.204 61.7158 80.0707 65.8492 85.004L69.0492 88.7374H158.916H248.649L249.049 77.6707L249.449 66.7374H159.316H69.1825L65.9825 70.0707Z" fill="black"/>
</svg>
