<svg width="301" height="287" viewBox="0 0 301 287" fill="none" xmlns="http://www.w3.org/2000/svg">
<g id="Hit">
<path id="Vector" d="M74 26.0001C81.044 29.6231 86.1229 34.8628 91.5267 40.5459C93.0989 42.1947 94.6846 43.8294 96.2749 45.4607C100.793 50.0962 105.302 54.7394 109.764 59.4291C123.857 74.2187 136.859 85.7322 155.44 94.6949C158.545 96.2778 161.402 98.1213 164.261 100.109C167.507 101.772 170.664 100.909 174 100C174.696 99.8171 175.393 99.634 176.11 99.4454C178.275 98.8378 180.418 98.1793 182.562 97.5001C187.719 95.8757 192.622 94.6221 198 94.0001C197.818 93.3808 197.636 92.7615 197.449 92.1234C196.62 89.2733 195.81 86.4181 195 83.5626C194.714 82.5887 194.428 81.6149 194.133 80.6115C192.13 73.4824 190.221 66.5578 193.688 59.6251C196.595 56.3252 198.658 54.3514 203.109 53.6837C207.094 53.4765 209.638 53.8362 213.312 55.5001C219.574 61.3248 221.175 69.5984 223.125 77.6251C223.626 79.6386 224.128 81.6516 224.633 83.6642C224.982 85.0654 224.982 85.0654 225.338 86.495C225.867 88.497 226.497 90.472 227.16 92.4337C228.875 97.6734 228.448 102.444 226.938 107.688C221.74 116.573 214.119 118.761 204.546 121.335C197.633 123.141 190.704 124.88 183.762 126.57C182.329 126.944 182.329 126.944 180.867 127.325C178 128 178 128 175.122 128.361C170.375 129.127 167.831 130.007 164.686 133.765C162.354 137.304 160.428 141.043 158.5 144.813C157.808 146.099 157.113 147.383 156.414 148.666C153.499 154.055 150.729 159.515 148 165C148.685 165.393 149.37 165.785 150.076 166.19C153.221 167.996 156.36 169.811 159.5 171.625C160.578 172.243 161.655 172.86 162.766 173.496C179.693 183.302 179.693 183.302 183 191C183.388 194.218 183.388 194.218 183.404 197.721C183.417 199.039 183.429 200.357 183.442 201.716C183.44 203.142 183.437 204.569 183.434 205.996C183.438 207.473 183.443 208.95 183.449 210.427C183.458 213.516 183.456 216.605 183.446 219.694C183.435 223.639 183.455 227.584 183.484 231.529C183.502 234.577 183.502 237.625 183.496 240.673C183.496 242.127 183.502 243.581 183.515 245.035C183.618 259.121 183.618 259.121 179 265C175.292 268.381 171.358 268.629 166.508 268.484C162.303 267.672 159.564 265.358 157 262C155.239 258.293 154.754 255.381 154.773 251.292C154.773 250.171 154.773 249.05 154.773 247.896C154.784 246.696 154.794 245.497 154.805 244.262C154.808 243.026 154.81 241.79 154.813 240.517C154.823 237.243 154.84 233.97 154.863 230.697C154.883 227.352 154.892 224.007 154.902 220.662C154.924 214.108 154.958 207.554 155 201C154.23 200.701 153.46 200.402 152.667 200.094C149.812 198.923 147.316 197.487 144.688 195.875C143.804 195.336 142.921 194.797 142.012 194.242C141.348 193.832 140.684 193.422 140 193C140.321 193.732 140.642 194.464 140.973 195.219C145.042 206.235 138.896 216.96 134.347 226.89C132.75 230.332 131.126 233.76 129.5 237.188C128.842 238.585 128.185 239.983 127.527 241.381C124.786 247.202 122.022 253.013 119.195 258.793C118.829 259.542 118.463 260.291 118.086 261.063C116.112 264.582 114.596 266.002 111 268C105.881 268.837 101.608 268.871 97 266.375C93.1927 261.854 91.6198 258.207 91.7232 252.23C92.2346 248.11 94.0368 244.603 95.832 240.899C96.2244 240.058 96.6169 239.218 97.0212 238.353C98.2707 235.687 99.5412 233.031 100.812 230.375C101.656 228.584 102.497 226.792 103.338 225C104.886 221.708 106.44 218.418 108.007 215.134C108.343 214.421 108.679 213.707 109.025 212.972C109.896 211.211 110.886 209.511 111.889 207.823C113.295 205.016 113.295 205.016 112.348 201.984C111.903 200.999 111.458 200.015 111 199C110.598 198.066 110.196 197.132 109.782 196.17C109.335 195.208 108.887 194.246 108.426 193.254C107.926 192.176 107.426 191.099 106.911 189.988C106.384 188.858 105.856 187.727 105.312 186.563C104.776 185.401 104.239 184.239 103.687 183.041C101.396 178.091 99.0989 173.149 96.6523 168.274C96.3239 167.609 95.9954 166.944 95.657 166.26C94.8216 164.582 93.9664 162.913 93.1094 161.246C91.404 156.256 90.9651 151.782 92.8325 146.762C94.0205 144.376 95.3205 142.1 96.6875 139.813C97.1692 138.968 97.6509 138.123 98.1472 137.252C100.913 132.433 103.794 127.688 106.695 122.949C107.599 121.46 107.599 121.46 108.521 119.94C109.701 118.003 110.897 116.076 112.11 114.16C112.647 113.282 113.185 112.404 113.738 111.5C114.223 110.727 114.708 109.953 115.208 109.156C116.235 107.065 116.235 107.065 115.377 105.205C113.543 102.269 111.214 99.968 108.756 97.5607C107.956 96.7648 107.956 96.7648 107.139 95.9528C105.983 94.8042 104.824 93.6579 103.664 92.5137C101.827 90.7023 99.9964 88.8848 98.1674 87.0654C94.2838 83.2047 90.3925 79.3519 86.5 75.5001C81.989 71.0363 77.4813 66.5694 72.9819 62.0939C71.1789 60.3039 69.3701 58.52 67.5609 56.7363C66.455 55.6377 65.3494 54.5388 64.2441 53.4396C63.7402 52.946 63.2362 52.4523 62.717 51.9437C58.7672 47.9952 57.1308 45.6476 56.6875 40.0626C56.8001 36.27 57.5739 34.0118 60 31.0001C64.8178 26.7698 67.4936 25.3705 74 26.0001Z" fill="#020202"/>
<path id="Vector_2" d="M171.5 33.9999C178.428 38.0809 183.826 44.2012 186 51.9999C186.968 61.221 186.185 69.4903 180.457 77.0312C178.742 78.8834 176.987 80.4457 175 81.9999C174.461 82.4343 173.922 82.8687 173.367 83.3163C166.767 87.563 157.533 87.1886 150 85.9999C141.899 83.2149 136.895 77.4599 132.972 70.0624C129.74 62.6754 130.055 54.6333 132.906 47.164C136.243 40.5615 141.328 35.8693 148.062 32.8515C155.771 30.6166 164.129 30.6968 171.5 33.9999Z" fill="#020202"/>
</g>
</svg>
