<svg width="258" height="344" viewBox="0 0 258 344" fill="none" xmlns="http://www.w3.org/2000/svg">
<path d="M43.7333 2.43484C17.8667 10.7015 0 34.7015 0 61.2348C0 65.2348 1.46667 76.9682 3.33333 87.2348C5.2 97.5015 9.06667 119.368 12 135.902C14.9333 152.435 17.7333 166.702 18.1333 167.768C18.5333 169.102 20.4 167.368 23.4667 162.702C26 158.835 32.1333 151.768 36.8 146.968L45.4667 138.035L41.2 110.702C37.4667 86.8348 37.0667 82.3015 38.2667 74.9682C42.6667 49.5015 62.9333 29.9015 88.2667 26.5682C100.933 24.9682 156.4 24.9682 169.067 26.5682C194.4 29.9015 214.533 49.2348 218.933 74.1682C220.4 82.7015 220.133 85.7682 216.133 110.568L211.733 137.635L220.4 146.435C225.2 151.235 231.2 158.035 233.733 161.502L238.533 167.902L240 160.835C246 132.435 257.333 67.6348 257.333 61.3682C257.333 34.7015 239.2 10.4348 213.467 2.56817C205.467 0.0348382 200.933 -0.0984951 128.133 0.0348382C57.6 0.0348382 50.6667 0.301505 43.7333 2.43484Z" fill="black"/>
<path d="M113.333 117.368C94.2665 119.635 71.8665 128.568 56.7999 139.902C48.1332 146.302 33.5999 161.368 28.3999 169.235C-5.20015 219.502 1.59985 283.768 44.7999 325.368C54.6665 334.702 58.7999 337.368 70.3999 341.368C77.0665 343.635 82.2665 343.902 128.933 343.902C177.2 343.902 180.533 343.768 188.267 341.102C203.733 335.902 216 325.635 229.733 306.302C252.133 274.702 257.067 229.635 242.133 192.035C231.6 165.768 209.067 141.902 181.467 127.902C163.867 119.102 135.333 114.568 113.333 117.368Z" fill="black"/>
</svg>
