<svg width="236" height="302" viewBox="0 0 236 302" fill="none" xmlns="http://www.w3.org/2000/svg">
<g id="Machine">
<path id="Vector" d="M55.6 2.10009C48 4.90009 43.0667 8.90009 39.3333 15.3001C36 20.9001 36 21.4334 36 50.5001V80.1001H44.6667H53.3333V53.9668C53.3333 27.7001 53.8667 24.1001 58.5333 20.5001C60.1333 19.3001 75.0667 18.9001 118.267 18.7668H175.733L179.2 22.9001L182.667 27.0334V53.5668V80.1001H191.333H200V51.4334C200 23.4334 199.867 22.5001 196.667 16.2334C193.067 9.03343 188.4 5.03343 179.867 2.10009C172 -0.699907 63.3333 -0.699907 55.6 2.10009Z" fill="black"/>
<path id="Vector_2" d="M114.667 52.7668V80.1001H118H121.334V52.7668V25.4334H118H114.667V52.7668Z" fill="black"/>
<path id="Vector_3" d="M31.3331 88.1001C29.8664 88.6334 22.3997 95.4334 14.7997 103.167C4.39974 113.7 1.06641 117.967 1.06641 120.633C1.06641 125.433 3.59974 128.1 8.53307 128.1C11.9997 128.1 14.6664 126.1 24.6664 116.1L36.6664 104.1H118H199.333L211.333 116.1C221.333 126.1 224 128.1 227.466 128.1C232.4 128.1 235.066 125.433 235.066 120.633C234.933 117.967 231.466 113.567 220.133 102.233L205.333 87.4334L119.6 87.1668C72.5331 87.0334 32.7997 87.4334 31.3331 88.1001Z" fill="black"/>
<path id="Vector_4" d="M38.2667 113.167C36.2667 115.433 36 123.033 36 195.833V276.1H44.6667H53.3333V193.433V110.767H46.9333C42.2667 110.767 39.7333 111.433 38.2667 113.167Z" fill="black"/>
<path id="Vector_5" d="M114.667 140.1V169.434H118H121.334V140.1V110.767H118H114.667V140.1Z" fill="black"/>
<path id="Vector_6" d="M182.667 193.433V276.1H191.334H200V195.7C200 104.233 200.8 110.767 188.934 110.767H182.667V193.433Z" fill="black"/>
<path id="Vector_7" d="M109.333 185.434V193.434H118H126.666V185.434V177.434H118H109.333V185.434Z" fill="black"/>
<path id="Vector_8" d="M85.333 211.434V221.434H118H150.666V211.434V201.434H118H85.333V211.434Z" fill="black"/>
<path id="Vector_9" d="M85.333 238.1V248.1H118H150.666V238.1V228.1H118H85.333V238.1Z" fill="black"/>
<path id="Vector_10" d="M85.333 266.1V276.1H118H150.666V266.1V256.1H118H85.333V266.1Z" fill="black"/>
<path id="Vector_11" d="M2.8 287.567C1.06667 289.834 0 293.034 0 296.234V301.434H118H236V296.234C236 293.034 234.933 289.834 233.2 287.567L230.533 284.1H118H5.46667L2.8 287.567Z" fill="black"/>
</g>
</svg>
