<svg width="301" height="287" viewBox="0 0 301 287" fill="none" xmlns="http://www.w3.org/2000/svg">
<g id="Pilates">
<path id="Vector" d="M176 69.0001C179.834 70.8125 181.534 72.3004 183.875 75.8126C185.195 79.5534 185.493 82.058 185 86.0001C181.344 92.0909 176.566 97.0863 171.698 102.205C170.524 103.446 169.359 104.696 168.2 105.951C158.728 116.196 149.325 123.496 137 130C136.01 130.66 135.02 131.32 134 132C135.584 135.909 138.266 138.524 141.227 141.422C141.734 141.927 142.242 142.432 142.765 142.952C144.38 144.556 146.003 146.153 147.625 147.75C148.724 148.84 149.823 149.929 150.922 151.02C153.609 153.685 156.303 156.344 159 159C163.211 155.526 167.125 151.916 170.878 147.954C177.869 140.626 185.187 134.971 194 130C195.522 129.139 195.522 129.139 197.074 128.26C203.958 124.378 210.866 120.542 217.802 116.754C219.923 115.591 222.038 114.416 224.146 113.228C225.119 112.684 226.091 112.139 227.094 111.578C227.95 111.094 228.807 110.61 229.689 110.11C233.001 108.519 235.402 108.365 239 109C244.337 110.989 247.453 113.907 250 119C250.555 124.658 249.451 128.534 246 133C243.777 134.864 241.365 136.197 238.812 137.563C238.091 137.969 237.369 138.375 236.625 138.794C234.093 140.214 231.547 141.607 229 143C225.751 144.796 222.506 146.597 219.262 148.402C217.09 149.61 214.913 150.81 212.732 152.002C211.716 152.564 210.699 153.125 209.652 153.703C208.755 154.195 207.858 154.686 206.933 155.193C199.502 159.772 193.447 165.303 187.371 171.539C185.743 173.188 184.115 174.836 182.486 176.485C179.954 179.06 177.424 181.639 174.897 184.22C172.436 186.729 169.967 189.228 167.496 191.727C166.748 192.497 166 193.266 165.229 194.06C157.753 201.606 149.75 206.25 139.062 207.438C131.006 206.993 125.282 203.55 119.477 198.121C118.961 197.64 118.445 197.159 117.914 196.664C112.437 191.527 107.063 186.284 101.743 180.984C100.112 179.362 98.4701 177.752 96.8281 176.141C79.8212 159.307 79.8212 159.307 79.5625 146.813C79.7345 137.296 83.3755 131.177 90.0569 124.678C93.0907 122.058 96.3883 120.266 99.9375 118.438C101.518 117.588 103.098 116.737 104.676 115.883C105.524 115.427 106.371 114.971 107.245 114.501C112.417 111.684 117.523 108.754 122.625 105.813C124.135 104.958 124.135 104.958 125.676 104.086C136.479 97.8417 144.681 89.4397 153.375 80.6251C155.338 78.6353 157.305 76.6488 159.273 74.6642C160.134 73.7923 160.994 72.9204 161.88 72.0221C166.045 68.0492 170.486 68.3988 176 69.0001Z" fill="#020202"/>
<path id="Vector_2" d="M89 67.0002C95.2169 71.5769 101.733 76.9735 103 85.0002C103.69 95.0314 103.186 102.368 96.75 110.25C91.7001 115.684 86.3229 118.619 78.8984 119.274C70.8141 119.507 64.553 119.032 58 114C51.7398 107.764 47.9671 100.931 47.625 92.0627C47.9388 83.8659 50.3274 77.7897 55.9648 71.7932C65.4805 63.4099 77.4809 61.4745 89 67.0002Z" fill="#020202"/>
<path id="Vector_3" d="M51.6667 215.732C52.4649 215.737 53.2631 215.741 54.0856 215.746C54.9312 215.743 55.7768 215.74 56.648 215.736C59.4978 215.728 62.3474 215.735 65.1973 215.741C67.2337 215.738 69.2701 215.735 71.3066 215.73C76.8498 215.721 82.393 215.725 87.9362 215.731C93.7263 215.736 99.5163 215.732 105.306 215.728C115.031 215.725 124.756 215.73 134.481 215.739C145.738 215.75 156.996 215.746 168.253 215.735C177.903 215.726 187.553 215.725 197.203 215.73C202.974 215.733 208.744 215.734 214.514 215.727C219.938 215.721 225.362 215.725 230.785 215.737C232.781 215.74 234.776 215.739 236.772 215.734C239.486 215.729 242.2 215.736 244.914 215.746C245.713 215.741 246.511 215.737 247.333 215.732C252.772 215.772 252.772 215.772 255 218C255.25 220.5 255.25 220.5 255 223C252.45 225.549 250.81 225.242 247.333 225.267C246.535 225.263 245.737 225.258 244.914 225.254C244.069 225.257 243.223 225.26 242.352 225.263C239.502 225.271 236.653 225.265 233.803 225.259C231.766 225.261 229.73 225.265 227.693 225.269C222.15 225.278 216.607 225.275 211.064 225.268C205.274 225.263 199.484 225.268 193.694 225.271C183.969 225.275 174.244 225.27 164.519 225.261C153.262 225.25 142.004 225.253 130.747 225.264C121.097 225.273 111.447 225.275 101.797 225.269C96.0264 225.266 90.2562 225.266 84.4859 225.272C79.0621 225.278 73.6385 225.274 68.2147 225.263C66.2192 225.26 64.2237 225.261 62.2282 225.265C59.5139 225.271 56.7999 225.264 54.0856 225.254C53.2873 225.258 52.4891 225.263 51.6667 225.267C46.2283 225.228 46.2283 225.228 44 223C43.75 220.5 43.75 220.5 44 218C46.5496 215.45 48.19 215.757 51.6667 215.732Z" fill="black"/>
</g>
</svg>
