<svg width="346" height="345" viewBox="0 0 346 345" fill="none" xmlns="http://www.w3.org/2000/svg">
<path d="M138 3.37531C104.133 10.442 77.6 24.442 52.8 48.042C18.6667 80.842 0 124.442 0 172.042C0 219.642 18.6667 263.242 52.8 296.042C86.1333 327.775 126.533 344.042 172.667 344.042C218.8 344.042 259.2 327.775 292.533 296.042C326.8 263.242 345.333 219.642 345.333 171.775C345.333 98.1753 298.133 32.5753 228 8.70864C200.933 -0.491359 166 -2.62469 138 3.37531ZM265.333 55.3753C270.533 58.042 291.333 80.3086 297.467 89.642C305.333 101.775 312.8 117.909 316.667 131.375C321.733 148.975 320.8 154.975 312.267 160.309C296.667 169.909 258.8 147.642 246.267 121.242C240.533 109.109 238.533 99.9086 238.533 86.042C238.8 59.1086 249.2 47.242 265.333 55.3753ZM96 59.9086C104 67.7753 107.067 94.3086 102 111.642C95.8667 132.842 81.2 150.709 62.1333 160.042C47.8667 167.242 37.3333 168.575 31.4667 163.909C24.9333 158.842 23.7333 153.775 26 142.575C32.4 112.309 46.2667 87.242 68.4 65.642C78.1333 56.1753 78.5333 56.042 85.3333 56.042C91.0667 56.042 92.8 56.5753 96 59.9086ZM185.6 132.042C196.8 135.509 205.2 142.709 210.533 153.642C214.133 160.575 214.667 163.242 214.667 172.042C214.667 180.842 214.133 183.509 210.533 190.442C205.2 201.375 196.8 208.575 185.6 212.042C174.933 215.375 170.4 215.375 159.733 212.042C148.533 208.575 140.133 201.375 134.8 190.442C131.2 183.509 130.667 180.842 130.667 172.042C130.667 163.242 131.2 160.575 134.8 153.642C140.133 142.975 148.667 135.509 159.2 132.042C169.733 128.842 175.067 128.709 185.6 132.042ZM200.133 264.842C211.333 268.309 226.933 278.442 232.533 285.775C235.2 289.109 236 291.909 236 296.575C236 306.042 230.8 310.709 216 314.709C201.867 318.442 183.2 321.375 172.667 321.375C162.133 321.375 140.533 318.042 129.467 314.709C118.267 311.375 114.533 307.642 113.6 298.975C113.067 293.375 113.6 291.909 117.467 286.709C120 283.509 126.133 278.042 131.067 274.709C151.867 260.575 175.467 257.242 200.133 264.842Z" fill="black"/>
</svg>
