<?xml version="1.0" standalone="no"?>
<!DOCTYPE svg PUBLIC "-//W3C//DTD SVG 20010904//EN"
 "http://www.w3.org/TR/2001/REC-SVG-20010904/DTD/svg10.dtd">
<svg version="1.0" xmlns="http://www.w3.org/2000/svg"
 width="301.000000pt" height="287.000000pt" viewBox="0 0 301.000000 287.000000"
 preserveAspectRatio="xMidYMid meet">

<g transform="translate(0.000000,287.000000) scale(0.100000,-0.100000)"
fill="#000000" stroke="none">
<path d="M1058 2786 c-108 -31 -180 -95 -231 -204 -56 -120 -36 -260 53 -372
65 -82 203 -139 303 -126 131 18 233 90 289 204 30 61 33 75 33 157 -1 110
-21 161 -95 239 -89 94 -234 136 -352 102z"/>
<path d="M2170 2189 c-106 -21 -222 -105 -285 -208 l-36 -58 -47 4 c-177 13
-546 47 -640 59 -207 26 -292 17 -368 -41 -44 -34 -70 -74 -89 -140 -20 -70
-42 -298 -55 -577 -13 -262 -10 -284 41 -343 33 -38 61 -50 143 -65 33 -5 60
-11 62 -12 1 -2 12 -58 25 -126 l23 -123 -141 -142 c-111 -111 -144 -151 -153
-184 -39 -131 88 -258 222 -223 36 10 73 41 231 198 104 103 195 199 203 214
19 37 18 108 -6 223 -11 54 -19 99 -17 101 1 2 33 -2 71 -9 50 -8 72 -17 81
-32 7 -11 64 -153 126 -315 126 -326 145 -357 228 -380 123 -33 241 65 229
188 -8 70 -289 776 -324 813 -38 39 -84 54 -269 85 -88 14 -161 27 -163 28 -1
2 12 121 30 264 27 220 35 261 48 258 8 -3 114 -12 235 -21 300 -22 275 -16
309 -77 64 -114 186 -197 318 -218 77 -12 109 -3 134 34 36 56 -7 110 -94 120
-70 8 -127 35 -170 79 l-32 33 37 25 c49 32 73 68 80 117 8 61 -25 122 -82
154 l-46 25 49 46 c50 46 123 77 182 77 45 0 80 35 80 80 0 70 -53 92 -170 69z"/>
</g>
</svg>
