<?xml version="1.0" standalone="no"?>
<!DOCTYPE svg PUBLIC "-//W3C//DTD SVG 20010904//EN"
 "http://www.w3.org/TR/2001/REC-SVG-20010904/DTD/svg10.dtd">
<svg version="1.0" xmlns="http://www.w3.org/2000/svg"
 width="301.000000pt" height="287.000000pt" viewBox="0 0 301.000000 287.000000"
 preserveAspectRatio="xMidYMid meet">

<g transform="translate(0.000000,287.000000) scale(0.100000,-0.100000)"
fill="#000000" stroke="none">
<path d="M2620 2793 c-41 -15 -40 20 -40 -1392 0 -746 4 -1361 8 -1367 16 -24
55 -34 137 -34 82 0 121 10 137 34 4 6 8 622 8 1368 l0 1357 -26 20 c-23 18
-40 21 -118 20 -50 0 -98 -3 -106 -6z"/>
<path d="M1711 2459 c-85 -26 -169 -108 -197 -192 -12 -35 -15 -71 -12 -121 8
-119 66 -204 178 -258 64 -32 176 -31 245 0 184 84 240 312 117 469 -57 71
-127 106 -222 109 -41 2 -90 -1 -109 -7z"/>
<path d="M1260 1965 c-25 -8 -59 -29 -77 -47 -39 -42 -422 -659 -434 -701 -10
-33 -5 -72 12 -118 6 -14 98 -108 205 -208 107 -100 194 -187 194 -192 0 -6
-46 -111 -101 -232 -56 -122 -105 -237 -109 -254 -29 -123 88 -236 210 -203
80 22 96 46 250 380 190 416 191 394 -20 586 -66 60 -118 115 -115 121 2 7 70
96 150 198 107 135 151 184 163 181 10 -3 99 -28 198 -56 l182 -51 158 11 c88
5 189 13 227 16 l67 6 0 144 0 144 -27 0 c-16 0 -109 -7 -208 -15 l-180 -14
-164 46 -164 47 -116 90 c-64 49 -129 98 -146 107 -43 26 -103 31 -155 14z"/>
<path d="M416 612 c-142 -180 -267 -343 -277 -362 -58 -107 28 -242 154 -243
31 -1 65 6 85 16 20 11 125 134 292 342 143 178 261 329 262 334 3 10 -239
241 -251 241 -3 -1 -122 -148 -265 -328z"/>
</g>
</svg>
