<svg width="301" height="287" viewBox="0 0 301 287" fill="none" xmlns="http://www.w3.org/2000/svg">
<g id="Rotate">
<path id="Vector" d="M39.803 17.8228C40.778 17.81 41.7529 17.7972 42.7575 17.7839C44.3371 17.7729 44.3371 17.7729 45.9487 17.7616C47.0353 17.7535 48.1219 17.7454 49.2414 17.7371C51.5438 17.7233 53.8462 17.7125 56.1487 17.7047C59.656 17.6875 63.1624 17.6436 66.6694 17.5994C68.9084 17.5893 71.1473 17.5808 73.3862 17.5741C74.4292 17.5565 75.4722 17.539 76.5468 17.521C83.5611 17.5417 89.1903 18.5509 94.5201 23.3766C99.9407 29.3727 100.294 35.6316 100.267 43.2853C100.271 44.2118 100.276 45.1382 100.281 46.0927C100.293 49.1925 100.292 52.2921 100.29 55.3919C100.296 57.6163 100.303 59.8406 100.31 62.0649C100.328 68.1042 100.333 74.1434 100.334 80.1826C100.336 85.2249 100.343 90.2672 100.35 95.3095C100.366 106.526 100.372 117.743 100.37 128.96C100.37 129.632 100.37 130.305 100.37 130.998C100.37 131.671 100.37 132.345 100.37 133.038C100.369 143.951 100.388 154.864 100.416 165.777C100.445 176.992 100.459 188.206 100.457 199.421C100.457 205.713 100.462 212.005 100.484 218.298C100.503 224.216 100.503 230.134 100.489 236.052C100.486 238.222 100.491 240.392 100.503 242.563C100.519 245.529 100.509 248.494 100.494 251.46C100.504 252.316 100.515 253.172 100.525 254.054C100.459 259.821 99.2097 264.166 95.9995 269C89.2595 275.562 82.8103 276.467 73.7925 276.469C72.7125 276.476 71.6325 276.484 70.5198 276.492C68.2396 276.502 65.9592 276.505 63.6789 276.501C60.2088 276.5 56.7408 276.541 53.271 276.586C51.049 276.591 48.827 276.594 46.605 276.594C45.5766 276.61 44.5481 276.626 43.4886 276.643C36.6486 276.578 31.4333 275.326 25.9995 271C20.904 264.599 19.8506 259.169 19.8523 251.075C19.8487 250.151 19.845 249.227 19.8412 248.275C19.8301 245.166 19.8263 242.057 19.8225 238.948C19.8162 236.724 19.8096 234.501 19.8026 232.277C19.7852 226.225 19.7746 220.173 19.7664 214.121C19.7612 210.341 19.7552 206.561 19.7489 202.781C19.732 192.313 19.7174 181.845 19.7101 171.377C19.7082 168.66 19.7063 165.944 19.7043 163.228C19.7039 162.553 19.7034 161.878 19.7029 161.182C19.6946 150.25 19.6692 139.317 19.6368 128.385C19.6037 117.157 19.586 105.929 19.5825 94.701C19.5801 88.3984 19.5711 82.096 19.546 75.7935C19.5228 69.8632 19.5185 63.9332 19.5288 58.0029C19.5293 55.8277 19.5229 53.6525 19.5092 51.4773C19.4915 48.5044 19.4986 45.5324 19.5118 42.5595C19.5008 41.7016 19.4898 40.8437 19.4785 39.9598C19.5499 33.2623 21.2492 27.7818 26.0347 22.9412C26.7037 22.4862 27.3727 22.0312 28.062 21.5623C28.7336 21.0892 29.4052 20.6162 30.0972 20.1287C33.3688 18.1872 36.083 17.8655 39.803 17.8228Z" fill="#020202"/>
<path id="Vector_2" d="M109 197C129.202 196.907 149.403 196.836 169.605 196.793C178.986 196.772 188.366 196.744 197.746 196.698C205.923 196.658 214.101 196.633 222.278 196.624C226.607 196.618 230.935 196.606 235.264 196.577C239.341 196.55 243.419 196.542 247.497 196.548C248.99 196.546 250.483 196.539 251.976 196.523C259.877 196.446 266.233 196.505 273 201C274.84 203.07 274.84 203.07 275.938 205.125C276.508 206.15 276.508 206.15 277.09 207.195C278.661 210.31 279.14 212.16 279.193 215.674C279.209 216.646 279.225 217.618 279.242 218.619C279.286 223.086 279.327 227.552 279.35 232.019C279.367 234.369 279.394 236.719 279.432 239.069C279.487 242.464 279.509 245.858 279.523 249.254C279.546 250.295 279.569 251.336 279.592 252.408C279.572 259.307 278.365 264.519 274 270C268.024 274.822 263.071 276.126 255.445 276.12C254.788 276.121 254.131 276.122 253.454 276.123C251.256 276.124 249.057 276.119 246.858 276.114C245.281 276.113 243.705 276.113 242.128 276.114C237.847 276.114 233.566 276.108 229.286 276.101C224.812 276.095 220.338 276.095 215.865 276.093C207.393 276.09 198.922 276.082 190.451 276.072C180.806 276.061 171.162 276.055 161.517 276.05C141.678 276.04 121.839 276.022 102 276C102.349 275.241 102.699 274.481 103.059 273.699C103.514 272.705 103.969 271.711 104.438 270.688C104.89 269.701 105.342 268.715 105.809 267.699C107.678 263.464 108.143 260.299 108.205 255.693C108.235 253.741 108.235 253.741 108.266 251.75C108.283 250.329 108.3 248.909 108.316 247.488C108.337 246.035 108.358 244.582 108.379 243.129C108.435 239.307 108.484 235.485 108.532 231.662C108.582 227.761 108.638 223.86 108.693 219.959C108.801 212.306 108.902 204.653 109 197Z" fill="#010101"/>
<path id="Vector_3" d="M120.812 36.625C135.801 36.9132 150.501 40.5986 164 47C165.094 47.513 166.189 48.0261 167.316 48.5547C192.622 61.2836 212.492 84.4163 222 111C223.008 114.085 223.93 117.189 224.812 120.312C225.019 121.041 225.226 121.769 225.44 122.52C230.518 141.403 229.409 163.975 222 182C221 183 221 183 218.562 183.188C216 183 216 183 214 181C213.35 175.15 214.838 169.849 216.246 164.184C222.078 139.558 214.874 114.206 202 93C188.123 72.1583 166.18 54.5316 141.145 49.3496C135.601 48.446 129.976 48.0498 124.375 47.6821C123.463 47.6194 122.552 47.5568 121.613 47.4922C120.796 47.4443 119.98 47.3965 119.138 47.3472C117 47 117 47 114 45C113.688 42 113.688 42 114 39C116.509 36.4908 117.327 36.6749 120.812 36.625Z" fill="#090909"/>
</g>
</svg>
