<svg width="301" height="287" viewBox="0 0 301 287" fill="none" xmlns="http://www.w3.org/2000/svg">
<g id="Streching">
<path id="Vector" d="M180.187 35.1874C183.807 37.5203 186.077 40.1553 188 43.9999C188.091 46.7467 188.122 49.4686 188.11 52.2154C188.11 53.9806 188.111 55.7458 188.112 57.5109C188.11 58.4515 188.109 59.3921 188.107 60.3612C188.104 65.3742 188.13 70.3872 188.15 75.4003C188.174 81.7653 188.19 88.1301 188.175 94.4952C187.595 125.745 187.595 125.745 194.299 156.023C195.359 159.013 196.106 162.049 196.875 165.125C199.588 175.266 202.399 185.381 205.195 195.5C205.51 196.643 205.826 197.786 206.151 198.963C206.817 201.347 207.508 203.719 208.218 206.09C209.709 211.642 209.892 216.147 207.375 221.375C203.761 225.37 200.355 227.121 195 227.437C190.753 227.259 188.239 225.787 185 223C182.118 218.949 180.886 214.663 179.66 209.91C179.452 209.129 179.243 208.348 179.029 207.543C178.366 205.052 177.714 202.557 177.062 200.062C176.414 197.608 175.764 195.155 175.113 192.701C174.688 191.097 174.264 189.492 173.841 187.886C172.239 181.816 170.507 175.794 168.697 169.783C168 167 168 167 168 163C146.88 163.33 125.76 163.66 104 164C98.4476 184.929 98.4476 184.929 92.9341 205.869C92.3739 208.003 91.808 210.136 91.2419 212.269C90.2407 216.052 89.2794 219.843 88.3201 223.637C87.7136 225.987 87.1069 228.337 86.4997 230.687C86.2269 231.788 85.9541 232.888 85.6731 234.021C83.7348 241.446 81.6484 248.462 75.1247 253C71.4317 254.182 68.857 254.482 64.9997 254C59.9133 251.261 56.8297 248.49 54.9997 243C54.411 236.411 56.3062 230.815 58.2497 224.562C58.9005 222.404 59.5489 220.245 60.1951 218.086C60.5086 217.04 60.8222 215.994 61.1453 214.917C62.6027 209.941 63.8248 204.92 65.0505 199.883C68.214 186.942 71.7765 174.108 75.4087 161.293C77.0319 155.545 78.5728 149.788 80.0154 143.993C83.6328 129.565 88.2872 119.704 101.086 111.515C108.168 107.832 114.56 107.726 122.402 107.805C123.48 107.807 124.557 107.81 125.668 107.813C129.091 107.824 132.514 107.849 135.937 107.875C138.266 107.885 140.595 107.894 142.924 107.902C148.616 107.924 154.308 107.958 160 108C159.986 107.201 159.973 106.402 159.959 105.579C159.839 98.0322 159.748 90.4855 159.689 82.9377C159.658 79.0577 159.615 75.1785 159.547 71.2989C159.482 67.5512 159.446 63.8041 159.43 60.0558C159.419 58.6297 159.398 57.2036 159.365 55.7777C159.09 43.2168 159.09 43.2168 162.786 38.6935C167.921 33.6926 173.397 32.6578 180.187 35.1874Z" fill="#020202"/>
<path id="Vector_2" d="M243.781 111.457C250.311 115.998 254.921 121.195 257 129C258.471 138.232 256.148 145.307 251 153C246.025 159.028 238.908 162.25 231.266 163.418C222.825 163.859 216.44 160.991 210.125 155.5C209.424 154.675 208.723 153.85 208 153C207.278 152.196 206.556 151.391 205.813 150.563C200.858 143.557 201.174 135.238 202 127C204.338 119.398 210.133 113.91 216.836 109.902C225.494 105.975 235.673 106.758 243.781 111.457Z" fill="#030303"/>
<path id="Vector_3" d="M106 172C115.57 172 125.14 172 135 172C135.536 174.062 136.072 176.125 136.625 178.25C138.277 184.524 140.106 190.733 142 196.938C144.259 204.35 146.247 211.779 148.055 219.312C148.978 222.915 150.082 226.408 151.25 229.938C153.342 236.645 154.535 241.931 151.312 248.375C147.582 252.61 144.806 254.178 139.188 254.625C133.958 254.38 131.527 252.63 127.778 249.132C124.773 245.528 124.029 241.775 123.125 237.25C122.657 235.21 122.182 233.171 121.703 231.133C121.314 229.447 121.314 229.447 120.916 227.728C118.95 219.725 116.548 211.837 114.232 203.93C111.14 193.35 108.452 182.748 106 172Z" fill="#030303"/>
<path id="Vector_4" d="M97 114C97.66 114.33 98.32 114.66 99 115C95.37 118.63 91.74 122.26 88 126C88 121.841 90.2468 119.855 93 117C95.3125 115.125 95.3125 115.125 97 114Z" fill="#222223"/>
</g>
</svg>
