<svg width="301" height="287" viewBox="0 0 301 287" fill="none" xmlns="http://www.w3.org/2000/svg">
<g id="Walk">
<path id="Vector" d="M156.937 88.6876C157.984 88.9588 157.984 88.9588 159.052 89.2354C169.864 92.1873 178.179 97.5702 183.995 107.359C184.671 108.611 185.338 109.866 185.999 111.125C186.341 111.763 186.683 112.4 187.035 113.057C188.753 116.334 190.229 119.548 191.437 123.047C192.944 126.964 194.4 130.621 197.999 133C204.015 134.477 210.109 134.131 216.249 133.883C221.674 133.755 225.604 134.774 229.999 138C232.902 141.266 233.895 143.166 234.437 147.5C233.787 152.697 232.336 155.794 228.437 159.313C224.152 162.279 220.75 162.176 215.667 162.203C214.424 162.212 214.424 162.212 213.156 162.22C211.4 162.23 209.644 162.236 207.888 162.24C205.208 162.25 202.529 162.281 199.849 162.313C198.143 162.319 196.436 162.324 194.73 162.328C193.931 162.341 193.132 162.353 192.308 162.366C187.69 162.347 184.783 161.932 180.999 159C178.096 155.91 176.032 152.442 173.87 148.816C173.332 147.915 172.794 147.013 172.239 146.084C171.83 145.397 171.421 144.709 170.999 144C169.874 147.854 168.749 151.708 167.624 155.563C167.307 156.649 166.99 157.735 166.663 158.854C166.047 160.966 165.433 163.079 164.821 165.192C164.335 166.853 163.84 168.511 163.327 170.164C161.812 175.017 161.812 175.017 161.999 180C164.262 182.451 164.262 182.451 167.187 184.813C173.326 190.486 175.515 196.56 177.424 204.592C178.06 207.254 178.75 209.897 179.449 212.543C180.228 215.497 181.003 218.452 181.757 221.412C183.103 226.694 184.557 231.91 186.201 237.106C190.63 251.212 190.63 251.212 188.999 258C186.905 261.822 184.278 264.192 180.624 266.5C175.205 267.532 171.426 266.823 166.749 264.125C160.056 257.803 158.688 245.438 156.562 236.875C155.712 233.474 154.851 230.078 153.941 226.692C153.277 224.088 152.718 221.558 152.225 218.925C149.443 205.62 141.776 198.462 131.999 189.5C129.792 187.434 127.594 185.36 125.407 183.273C124.056 181.989 122.694 180.718 121.317 179.463C114.293 172.879 110.416 166.04 109.749 156.375C109.82 151.012 111.44 146.091 112.999 141C113.429 139.552 113.429 139.552 113.867 138.074C114.568 135.713 115.279 133.355 115.999 131C115.009 131 114.019 131 112.999 131C112.737 131.7 112.474 132.399 112.203 133.12C110.9 136.238 109.37 139.121 107.734 142.078C107.418 142.649 107.102 143.22 106.777 143.808C106.109 145.012 105.44 146.216 104.769 147.419C103.762 149.228 102.761 151.042 101.761 152.856C90.5624 173.07 90.5624 173.07 83.9994 175C80.1482 175.604 76.6784 175.898 73.1595 174.016C69.5852 171.184 67.448 168.304 66.58 163.846C66.2271 155.9 69.3496 150.606 73.3744 143.938C74.3297 142.303 74.3297 142.303 75.3043 140.636C76.5885 138.442 77.8811 136.254 79.1825 134.071C80.8003 131.337 82.3676 128.583 83.9095 125.805C84.7517 124.307 85.5941 122.81 86.4369 121.313C86.8002 120.649 87.1636 119.986 87.538 119.303C92.6512 110.438 100.653 106.209 109.459 101.413C111.237 100.444 113.007 99.4627 114.777 98.4786C129.001 90.6498 140.592 84.4379 156.937 88.6876Z" fill="#020202"/>
<path id="Vector_2" d="M171.13 29.8361C177.344 33.702 182.802 38.4035 185.407 45.3869C187.326 53.8339 187.11 62.181 182.673 69.7463C176.586 77.9517 169.942 81.8098 159.942 83.3088C152.734 83.7874 145.792 80.6857 140.188 76.3127C134.942 71.4389 131.43 64.8487 130.798 57.7033C130.615 48.1483 133.33 40.9686 140.001 34.0002C148.712 27.335 160.828 25.0952 171.13 29.8361Z" fill="#020202"/>
<path id="Vector_3" d="M120 192C123.363 193.457 125.545 195.311 128.109 197.914C128.863 198.675 129.618 199.435 130.395 200.219C131.172 201.013 131.949 201.807 132.75 202.625C133.543 203.427 134.336 204.229 135.152 205.055C137.106 207.032 139.055 209.014 141 211C136.997 219.253 132.666 227.23 128 235.125C127.41 236.132 126.819 237.139 126.211 238.176C124.481 241.121 122.741 244.061 121 247C120.447 247.944 119.893 248.888 119.323 249.86C118.537 251.192 118.537 251.192 117.734 252.551C117.273 253.336 116.811 254.122 116.335 254.931C114.139 258.335 111.672 261.164 108 263C103.501 263.414 99.3606 263.532 95.125 261.875C91.3694 258.561 89.1417 255.752 88.7305 250.668C89.0193 246.738 89.8097 244.537 91.625 241.062C92.0749 240.198 92.0749 240.198 92.5339 239.316C97.4644 230.019 102.912 220.991 108.265 211.935C109.891 209.185 111.511 206.431 113.129 203.676C115.415 199.782 117.706 195.89 120 192Z" fill="#030303"/>
<path id="Vector_4" d="M115 130C115.66 130.33 116.32 130.66 117 131C116.01 134.3 115.02 137.6 114 141C113.34 140.01 112.68 139.02 112 138C111.34 138 110.68 138 110 138C111.186 134.625 112.276 132.353 115 130Z" fill="#D1D1D3"/>
</g>
</svg>
