<svg width="301" height="287" viewBox="0 0 301 287" fill="none" xmlns="http://www.w3.org/2000/svg">
<g id="Yoga">
<path id="Vector" d="M125.781 109.725C126.919 109.716 128.057 109.706 129.23 109.697C131.061 109.698 131.061 109.698 132.93 109.699C134.193 109.695 135.457 109.691 136.759 109.686C139.431 109.681 142.102 109.679 144.773 109.684C148.181 109.69 151.589 109.673 154.997 109.65C158.266 109.632 161.536 109.636 164.805 109.637C166.63 109.623 166.63 109.623 168.492 109.609C176.676 109.653 183.071 110.486 189.446 116.144C193.273 120.715 195.746 126.332 198.438 131.625C207.575 149.484 207.575 149.484 220.5 164.688C221.825 165.972 223.148 167.259 224.469 168.547C225.395 169.445 225.395 169.445 226.34 170.361C228.879 172.868 231.225 175.507 233.508 178.246C234.601 179.531 235.75 180.767 236.93 181.973C239.982 185.153 242.35 187.692 243.125 192.125C242.953 197.448 241.442 200.333 238 204.313C235.065 206.789 232.411 207.19 228.688 207.313C227.949 207.35 227.21 207.387 226.449 207.426C220.65 206.418 216.54 201.792 212.562 197.75C212.084 197.265 211.605 196.78 211.112 196.28C207.869 192.967 204.798 189.545 201.805 186.008C199.675 183.639 197.377 181.5 195.062 179.313C189.508 173.834 185.8 167.746 182 161C180.68 158.69 179.36 156.38 178 154C177.67 165.22 177.34 176.44 177 188C171.388 190.405 166.272 192.201 160.438 193.75C159.201 194.1 159.201 194.1 157.939 194.457C157.133 194.672 156.327 194.888 155.496 195.109C154.776 195.305 154.056 195.501 153.314 195.702C148.571 196.313 143.946 194.795 139.383 193.59C138.464 193.349 137.545 193.108 136.598 192.859C135.452 192.555 134.306 192.251 133.125 191.938C129.454 190.968 125.783 189.999 122 189C121.505 171.675 121.505 171.675 121 154C118.36 158.62 115.72 163.24 113 168C107.941 174.979 102.207 180.929 96.0793 186.951C92.9403 190.037 89.9099 193.137 87.0625 196.5C78.6071 206.479 78.6071 206.479 72.8633 207.309C68.036 207.553 64.83 207.457 61 204.313C57.1416 200.409 56.0285 197.737 55.9375 192.188C56.496 188.695 57.6917 186.865 60.0664 184.274C61.013 183.232 61.013 183.232 61.9788 182.17C62.6458 181.454 63.3128 180.738 64 180C64.647 179.299 65.2941 178.598 65.9607 177.875C67.9629 175.719 69.9791 173.577 72 171.438C72.6729 170.722 73.3458 170.005 74.0391 169.268C77.1938 165.921 80.37 162.646 83.707 159.481C87.2092 155.994 89.4275 152.24 91.6875 147.875C92.5393 146.295 93.3922 144.716 94.2461 143.137C94.911 141.894 94.911 141.894 95.5894 140.627C98.0984 135.955 100.662 131.316 103.25 126.688C103.974 125.354 103.974 125.354 104.714 123.994C109.638 115.214 115.199 109.774 125.781 109.725Z" fill="#020202"/>
<path id="Vector_2" d="M201.875 195.625C205.354 198.269 206.626 199.877 208 204C208.528 208.226 208.316 210.38 206.375 214.188C197.732 224.423 181.736 225.912 169.371 229.215C161.483 231.323 153.612 233.483 145.75 235.688C144.183 236.124 144.183 236.124 142.585 236.57C138.277 237.775 133.979 238.989 129.711 240.328C121.835 242.765 113.965 244.965 106 241.813C101.86 238.061 100.778 235.099 100.5 229.563C100.349 225.141 101.419 222.62 104.434 219.323C107.169 217.012 110.315 216.046 113.688 215.063C114.465 214.82 115.241 214.578 116.042 214.328C124.944 211.603 133.957 209.242 142.957 206.867C150.486 204.88 157.994 202.821 165.5 200.75C166.698 200.421 167.896 200.092 169.13 199.752C175.062 198.116 180.966 196.435 186.83 194.567C192.093 193.192 196.964 193.164 201.875 195.625Z" fill="#030303"/>
<path id="Vector_3" d="M163 49.0001C169.635 53.618 175.203 58.9201 177 67.0001C178.138 75.7832 177.1 82.6899 172 90.0001C166.943 96.3539 161.199 100.047 153 101C144.205 101.93 137.955 99.8185 130.957 94.4259C124.598 88.6093 121.836 82.2622 121.375 73.6876C121.654 65.742 124.323 58.7585 129.934 53.0235C139.838 45.1849 151.495 43.3903 163 49.0001Z" fill="#020202"/>
<path id="Vector_4" d="M120.062 197C121.023 197.286 121.984 197.572 122.974 197.867C125.319 198.567 127.66 199.278 129.999 200C128.999 202 128.999 202 126.809 202.774C125.86 203.019 124.911 203.263 123.933 203.515C122.889 203.798 121.846 204.08 120.771 204.371C118.577 204.949 116.382 205.52 114.185 206.082C108.037 207.761 103.482 209.537 98.7025 213.819C96.9991 215 96.9991 215 92.9991 215C90.6459 211.323 90.5624 208.295 90.9991 204C92.3692 200.393 94.2793 197.637 97.1866 195.062C104.89 192.152 112.55 194.679 120.062 197Z" fill="#050505"/>
<path id="Vector_5" d="M198 231C197.727 234.914 197.25 236.703 194.688 239.75C190.886 242.933 188.372 244.448 183.281 244.336C178.039 243.564 173.007 241.687 168 240C168 239.34 168 238.68 168 238C172.248 236.825 176.499 235.662 180.75 234.5C181.957 234.166 183.163 233.832 184.406 233.488C186.146 233.015 186.146 233.015 187.922 232.531C188.99 232.238 190.058 231.945 191.159 231.643C194 231 194 231 198 231Z" fill="#0F0F0F"/>
<path id="Vector_6" d="M121 152C121.33 152 121.66 152 122 152C122 163.88 122 175.76 122 188C121.67 188 121.34 188 121 188C120.67 178.43 120.34 168.86 120 159C119.34 159 118.68 159 118 159C119.875 154.25 119.875 154.25 121 152Z" fill="#E0E0E1"/>
<path id="Vector_7" d="M98 195C98.66 195.33 99.32 195.66 100 196C97.69 198.31 95.38 200.62 93 203C93 200 93 200 95.5 197.312C96.325 196.549 97.15 195.786 98 195Z" fill="#262626"/>
</g>
</svg>
